<svg height="1080" width="1920" xmlns="http://www.w3.org/2000/svg"><path d="M766 1327l-364 12 877 1z" fill="#406c8f" stroke="#406c8f" stroke-width="1.51"/><path d="M923 1312l-157 15 513 13z" fill="#306693" stroke="#306693" stroke-width="1.51"/><path d="M750-244l478 11h102z" fill="#a7d0ca" stroke="#a7d0ca" stroke-width="1.51"/><path d="M1658 1300l-229 25 306-25z" fill="#1b3c86" stroke="#1b3c86" stroke-width="1.51"/><path d="M750-244l580 11 459 3z" fill="#a2c3c8" stroke="#a2c3c8" stroke-width="1.51"/><path d="M2057 80l-69 30 100 119z" fill="#758093" stroke="#758093" stroke-width="1.51"/><path d="M2056 412l17 154 15-337z" fill="#487093" stroke="#487093" stroke-width="1.51"/><path d="M2075 738l8 151 20 140z" fill="#1c478a" stroke="#1c478a" stroke-width="1.51"/><path d="M2073 566l2 172 28 291z" fill="#1f5491" stroke="#1f5491" stroke-width="1.51"/><path d="M1952 1041l125 135 26-147z" fill="#1d3585" stroke="#1d3585" stroke-width="1.51"/><path d="M2088 229l-15 337 30 463z" fill="#2c6394" stroke="#2c6394" stroke-width="1.51"/><path d="M2035-18l22 98 52-252z" fill="#858590" stroke="#858590" stroke-width="1.51"/><path d="M2057 80l31 149 21-401z" fill="#7c818f" stroke="#7c818f" stroke-width="1.51"/><path d="M1735 1300l-306 25 698-31z" fill="#1b3281" stroke="#1b3281" stroke-width="1.51"/><path d="M1429 1325l-150 15 848-46z" fill="#1a3c84" stroke="#1a3c84" stroke-width="1.51"/><path d="M1951 1275l-216 25 392-6z" fill="#192978" stroke="#192978" stroke-width="1.51"/><path d="M2077 1176l-126 99 176 19z" fill="#162773" stroke="#162773" stroke-width="1.51"/><path d="M2103 1029l-26 147 50 118z" fill="#192a7a" stroke="#192a7a" stroke-width="1.51"/><path d="M2109-172l-21 401 39 1065z" fill="#3f6c91" stroke="#3f6c91" stroke-width="1.51"/><path d="M2088 229l15 800 24 265z" fill="#1c4b8a" stroke="#1c4b8a" stroke-width="1.51"/><path d="M1330-233l188 49 271-46z" fill="#9daabc" stroke="#9daabc" stroke-width="1.51"/><path d="M2056 412l-105 24 122 130z" fill="#416f99" stroke="#416f99" stroke-width="1.51"/><path d="M2073 566l-176 169 178 3z" fill="#2a619a" stroke="#2a619a" stroke-width="1.51"/><path d="M1952 1041l-25 63 150 72z" fill="#203489" stroke="#203489" stroke-width="1.51"/><path d="M2075 738l-127 134 135 17z" fill="#204f92" stroke="#204f92" stroke-width="1.51"/><path d="M1945 210l111 202 32-183z" fill="#5d7996" stroke="#5d7996" stroke-width="1.51"/><path d="M2083 889l-131 152 151-12z" fill="#1c3e89" stroke="#1c3e89" stroke-width="1.51"/><path d="M1931-116l104 98 74-154z" fill="#8c8896" stroke="#8c8896" stroke-width="1.51"/><path d="M1915-213l16 97 178-56z" fill="#918ba0" stroke="#918ba0" stroke-width="1.51"/><path d="M1882 584l15 151 176-169z" fill="#3268a1" stroke="#3268a1" stroke-width="1.51"/><path d="M1948 872l4 169 131-152z" fill="#204591" stroke="#204591" stroke-width="1.51"/><path d="M1945 210l6 226 105-24z" fill="#54779c" stroke="#54779c" stroke-width="1.51"/><path d="M1988 110l-43 100 143 19z" fill="#717f98" stroke="#717f98" stroke-width="1.51"/><path d="M1897 735l51 137 127-134z" fill="#25599c" stroke="#25599c" stroke-width="1.51"/><path d="M1951 436l-69 148 191-18z" fill="#3b6fa1" stroke="#3b6fa1" stroke-width="1.51"/><path d="M1927 1104l24 171 126-99z" fill="#1d2d83" stroke="#1d2d83" stroke-width="1.51"/><path d="M1518-184l102 1 169-47z" fill="#9ca3b8" stroke="#9ca3b8" stroke-width="1.51"/><path d="M2035-18l-47 128 69-30z" fill="#7f8495" stroke="#7f8495" stroke-width="1.51"/><path d="M1837 101l151 9 47-128z" fill="#83879d" stroke="#83879d" stroke-width="1.51"/><path d="M1931-116l-94 217 198-119z" fill="#8c8a9e" stroke="#8c8a9e" stroke-width="1.51"/><path d="M1945 210l-146 34 152 192z" fill="#627ea4" stroke="#627ea4" stroke-width="1.51"/><path d="M1799 244l-14 167 166 25z" fill="#5a7daa" stroke="#5a7daa" stroke-width="1.51"/><path d="M1948 872l-159 122 163 47z" fill="#244699" stroke="#244699" stroke-width="1.51"/><path d="M1837 101l108 109 43-100z" fill="#7d86a0" stroke="#7d86a0" stroke-width="1.51"/><path d="M1741-78l96 179 94-217z" fill="#9390a7" stroke="#9390a7" stroke-width="1.51"/><path d="M1897 735l-58 103 109 34z" fill="#2958a2" stroke="#2958a2" stroke-width="1.51"/><path d="M1839 838l-50 156 159-122z" fill="#284fa1" stroke="#284fa1" stroke-width="1.51"/><path d="M1927 1104l-184 28 208 143z" fill="#243390" stroke="#243390" stroke-width="1.51"/><path d="M1743 1132l-8 168 216-25z" fill="#20338a" stroke="#20338a" stroke-width="1.51"/><path d="M1785 411l97 173 69-148z" fill="#4976aa" stroke="#4976aa" stroke-width="1.51"/><path d="M1789 994l138 110 25-63z" fill="#253f96" stroke="#253f96" stroke-width="1.51"/><path d="M1837 101l-38 143 146-34z" fill="#7986a7" stroke="#7986a7" stroke-width="1.51"/><path d="M1785 411l-41 96 138 77z" fill="#4579ae" stroke="#4579ae" stroke-width="1.51"/><path d="M1915-213l-126-17 142 114z" fill="#9991ae" stroke="#9991ae" stroke-width="1.51"/><path d="M1789-230l-48 152 190-38z" fill="#9994ad" stroke="#9994ad" stroke-width="1.51"/><path d="M1882 584l-95 159 110-8z" fill="#3267ab" stroke="#3267ab" stroke-width="1.51"/><path d="M1789 994l-46 138 184-28z" fill="#26409a" stroke="#26409a" stroke-width="1.51"/><path d="M1787 743l52 95 58-103z" fill="#2b61a9" stroke="#2b61a9" stroke-width="1.51"/><path d="M1744 507l43 236 95-159z" fill="#3872ae" stroke="#3872ae" stroke-width="1.51"/><path d="M410-247l135 12 205-9z" fill="#caeac5" stroke="#caeac5" stroke-width="1.51"/><path d="M1744 507l-109 158 152 78z" fill="#3375b0" stroke="#3375b0" stroke-width="1.51"/><path d="M1647 293l138 118 14-167z" fill="#6187ac" stroke="#6187ac" stroke-width="1.51"/><path d="M1741-78l-90 33 186 146z" fill="#9197aa" stroke="#9197aa" stroke-width="1.51"/><path d="M1651-45l-11 189 197-43z" fill="#8a96ab" stroke="#8a96ab" stroke-width="1.51"/><path d="M1640 144l159 100 38-143z" fill="#7e8faa" stroke="#7e8faa" stroke-width="1.51"/><path d="M1669 840l120 154 50-156z" fill="#2757a5" stroke="#2757a5" stroke-width="1.51"/><path d="M1787 743l-118 97 170-2z" fill="#2962aa" stroke="#2962aa" stroke-width="1.51"/><path d="M579 1319l-177 20 364-12z" fill="#59758e" stroke="#59758e" stroke-width="1.51"/><path d="M750-244l264 42 214-31z" fill="#aad7ca" stroke="#aad7ca" stroke-width="1.51"/><path d="M1620-183l121 105 48-152z" fill="#9b9cb2" stroke="#9b9cb2" stroke-width="1.51"/><path d="M1678 1122l65 10 46-138z" fill="#26449b" stroke="#26449b" stroke-width="1.51"/><path d="M1669 840l-73 118 193 36z" fill="#2558a6" stroke="#2558a6" stroke-width="1.51"/><path d="M1640 144l7 149 152-49z" fill="#7290ad" stroke="#7290ad" stroke-width="1.51"/><path d="M1678 1122l-20 178h77z" fill="#203b8d" stroke="#203b8d" stroke-width="1.51"/><path d="M1678 1122l57 178 8-168z" fill="#243d94" stroke="#243d94" stroke-width="1.51"/><path d="M1655 488l89 19 41-96z" fill="#4981b0" stroke="#4981b0" stroke-width="1.51"/><path d="M1596 958l82 164 111-128z" fill="#264ea0" stroke="#264ea0" stroke-width="1.51"/><path d="M1584 410l71 78 130-77z" fill="#4d86b1" stroke="#4d86b1" stroke-width="1.51"/><path d="M1647 293l-63 117 201 1z" fill="#5789b0" stroke="#5789b0" stroke-width="1.51"/><path d="M1635 665l34 175 118-97z" fill="#286db0" stroke="#286db0" stroke-width="1.51"/><path d="M1620-183l31 138 90-33z" fill="#999fae" stroke="#999fae" stroke-width="1.51"/><path d="M1655 488l-20 177 109-158z" fill="#3980b2" stroke="#3980b2" stroke-width="1.51"/><path d="M1463 647l-32 217 204-199z" fill="#267db6" stroke="#267db6" stroke-width="1.51"/><path d="M1640 144l-143 50 150 99z" fill="#7599b0" stroke="#7599b0" stroke-width="1.51"/><path d="M1467 145l173-1 11-189z" fill="#899faf" stroke="#899faf" stroke-width="1.51"/><path d="M1461 516l174 149 20-177z" fill="#3786b5" stroke="#3786b5" stroke-width="1.51"/><path d="M1635 665l-204 199 238-24z" fill="#2470b1" stroke="#2470b1" stroke-width="1.51"/><path d="M1515 1144l143 156 20-178z" fill="#244497" stroke="#244497" stroke-width="1.51"/><path d="M1596 958l-81 186 163-22z" fill="#254fa1" stroke="#254fa1" stroke-width="1.51"/><path d="M1461 516l2 131 172 18z" fill="#3186b7" stroke="#3186b7" stroke-width="1.51"/><path d="M1515-107l-48 252 184-190z" fill="#91a6b0" stroke="#91a6b0" stroke-width="1.51"/><path d="M1620-183l-105 76 136 62z" fill="#99a5b1" stroke="#99a5b1" stroke-width="1.51"/><path d="M1431 864l165 94 73-118z" fill="#2365ac" stroke="#2365ac" stroke-width="1.51"/><path d="M1515 1144l-86 181 229-25z" fill="#1f4590" stroke="#1f4590" stroke-width="1.51"/><path d="M1584 410l-123 106 194-28z" fill="#458cb5" stroke="#458cb5" stroke-width="1.51"/><path d="M1452 1036l63 108 81-186z" fill="#2558a5" stroke="#2558a5" stroke-width="1.51"/><path d="M1497 194l87 216 63-117z" fill="#6395b2" stroke="#6395b2" stroke-width="1.51"/><path d="M1467 145l30 49 143-50z" fill="#7ea0b1" stroke="#7ea0b1" stroke-width="1.51"/><path d="M1497 194l-37 229 124-13z" fill="#5a97b4" stroke="#5a97b4" stroke-width="1.51"/><path d="M1518-184l-3 77 105-76z" fill="#9ba9b7" stroke="#9ba9b7" stroke-width="1.51"/><path d="M1460 423l1 93 123-106z" fill="#4993b7" stroke="#4993b7" stroke-width="1.51"/><path d="M1431 864l21 172 144-78z" fill="#2363ab" stroke="#2363ab" stroke-width="1.51"/><path d="M1326-26l141 171 48-252z" fill="#92b0b4" stroke="#92b0b4" stroke-width="1.51"/><path d="M-12-245l348 8 74-10z" fill="#e9f7c2" stroke="#e9f7c2" stroke-width="1.51"/><path d="M1315 688l29 158 87 18z" fill="#2281b9" stroke="#2281b9" stroke-width="1.51"/><path d="M1315 688l116 176 32-217z" fill="#2385bb" stroke="#2385bb" stroke-width="1.51"/><path d="M1326-26l10 118 131 53z" fill="#8cb3b7" stroke="#8cb3b7" stroke-width="1.51"/><path d="M1291 289l169 134 37-229z" fill="#62a2b8" stroke="#62a2b8" stroke-width="1.51"/><path d="M1305 1120l124 205 86-181z" fill="#26539e" stroke="#26539e" stroke-width="1.51"/><path d="M1330-233l185 126 3-77z" fill="#9db2bc" stroke="#9db2bc" stroke-width="1.51"/><path d="M1330-233l-4 207 189-81z" fill="#9db7ba" stroke="#9db7ba" stroke-width="1.51"/><path d="M1452 1036l-147 84 210 24z" fill="#285aa7" stroke="#285aa7" stroke-width="1.51"/><path d="M1461 516l-110 31 112 100z" fill="#3393bb" stroke="#3393bb" stroke-width="1.51"/><path d="M1467 145l-176 144 206-95z" fill="#76a8b6" stroke="#76a8b6" stroke-width="1.51"/><path d="M1305 1120l-26 220 150-15z" fill="#235597" stroke="#235597" stroke-width="1.51"/><path d="M1344 846l-49 168 136-150z" fill="#2374b3" stroke="#2374b3" stroke-width="1.51"/><path d="M1431 864l-136 150 157 22z" fill="#246aae" stroke="#246aae" stroke-width="1.51"/><path d="M1291 289l-6 130 175 4z" fill="#54a4bc" stroke="#54a4bc" stroke-width="1.51"/><path d="M1460 423l-109 124 110-31z" fill="#4097bb" stroke="#4097bb" stroke-width="1.51"/><path d="M1336 92l-45 197 176-144z" fill="#7dafb8" stroke="#7dafb8" stroke-width="1.51"/><path d="M1285 419l66 128 109-124z" fill="#469ebd" stroke="#469ebd" stroke-width="1.51"/><path d="M1351 547l-36 141 148-41z" fill="#2d91bd" stroke="#2d91bd" stroke-width="1.51"/><path d="M1295 1014l10 106 147-84z" fill="#2865ac" stroke="#2865ac" stroke-width="1.51"/><path d="M37 1311l-193 27 558 1z" fill="#84838b" stroke="#84838b" stroke-width="1.51"/><path d="M1151 1279l-228 33 356 28z" fill="#296094" stroke="#296094" stroke-width="1.51"/><path d="M1220 104l-30 148 101 37z" fill="#76b8bc" stroke="#76b8bc" stroke-width="1.51"/><path d="M1151 1279l128 61 26-220z" fill="#265d9d" stroke="#265d9d" stroke-width="1.51"/><path d="M1201 674l-51 148 165-134z" fill="#2395c1" stroke="#2395c1" stroke-width="1.51"/><path d="M1228-233l-26 205 124 2z" fill="#9ec4bc" stroke="#9ec4bc" stroke-width="1.51"/><path d="M1228-233l98 207 4-207z" fill="#9fc1c1" stroke="#9fc1c1" stroke-width="1.51"/><path d="M1326-26l-106 130 116-12z" fill="#8ebbba" stroke="#8ebbba" stroke-width="1.51"/><path d="M1220 104l71 185 45-197z" fill="#80b7bb" stroke="#80b7bb" stroke-width="1.51"/><path d="M1315 688l-165 134 194 24z" fill="#1f8bbd" stroke="#1f8bbd" stroke-width="1.51"/><path d="M1237 960l58 54 49-168z" fill="#2376b3" stroke="#2376b3" stroke-width="1.51"/><path d="M1285 419l-134 126 200 2z" fill="#3ca5c1" stroke="#3ca5c1" stroke-width="1.51"/><path d="M1201 674l114 14 36-141z" fill="#2b98c0" stroke="#2b98c0" stroke-width="1.51"/><path d="M1151 545l50 129 150-127z" fill="#30a0c2" stroke="#30a0c2" stroke-width="1.51"/><path d="M1202-28l18 132 106-130z" fill="#93c0bb" stroke="#93c0bb" stroke-width="1.51"/><path d="M1150 822l87 138 107-114z" fill="#2382b9" stroke="#2382b9" stroke-width="1.51"/><path d="M1149 1119l2 160 154-159z" fill="#2f64a9" stroke="#2f64a9" stroke-width="1.51"/><path d="M1196 397l89 22 6-130z" fill="#55acbf" stroke="#55acbf" stroke-width="1.51"/><path d="M1295 1014l-146 105 156 1z" fill="#2a6aae" stroke="#2a6aae" stroke-width="1.51"/><path d="M1196 397l-45 148 134-126z" fill="#48abc1" stroke="#48abc1" stroke-width="1.51"/><path d="M1190 252l6 145 95-108z" fill="#61b2be" stroke="#61b2be" stroke-width="1.51"/><path d="M1237 960l-88 159 146-105z" fill="#2a71b0" stroke="#2a71b0" stroke-width="1.51"/><path d="M1053 1262l-130 50 228-33z" fill="#306699" stroke="#306699" stroke-width="1.51"/><path d="M1014-202l50 187 138-13z" fill="#a1cebb" stroke="#a1cebb" stroke-width="1.51"/><path d="M1202-28l-138 13 156 119z" fill="#95c6bb" stroke="#95c6bb" stroke-width="1.51"/><path d="M1014-202l188 174 26-205z" fill="#a3ccc2" stroke="#a3ccc2" stroke-width="1.51"/><path d="M1046 1042l103 77 88-159z" fill="#3175b1" stroke="#3175b1" stroke-width="1.51"/><path d="M1150 822l-136 63 223 75z" fill="#2c86b9" stroke="#2c86b9" stroke-width="1.51"/><path d="M1014 885l32 157 191-82z" fill="#3080b5" stroke="#3080b5" stroke-width="1.51"/><path d="M1072 441l79 104 45-148z" fill="#49afc2" stroke="#49afc2" stroke-width="1.51"/><path d="M999 184l191 68 30-148z" fill="#80c0bd" stroke="#80c0bd" stroke-width="1.51"/><path d="M1064-15l-28 54 184 65z" fill="#95c9bc" stroke="#95c9bc" stroke-width="1.51"/><path d="M1072 441l11 72 68 32z" fill="#44afc2" stroke="#44afc2" stroke-width="1.51"/><path d="M1036 39l-37 145 221-80z" fill="#8ec7bc" stroke="#8ec7bc" stroke-width="1.51"/><path d="M1149 1119l-78 9 80 151z" fill="#3469a9" stroke="#3469a9" stroke-width="1.51"/><path d="M1190 252l-118 189 124-44z" fill="#5ab4bf" stroke="#5ab4bf" stroke-width="1.51"/><path d="M1151 545l-148 146 198-17z" fill="#33a3c2" stroke="#33a3c2" stroke-width="1.51"/><path d="M1003 691l147 131 51-148z" fill="#2b9bc1" stroke="#2b9bc1" stroke-width="1.51"/><path d="M1071 1128l-18 134 98 17z" fill="#3268a1" stroke="#3268a1" stroke-width="1.51"/><path d="M999 184l73 257 118-189z" fill="#6abcbe" stroke="#6abcbe" stroke-width="1.51"/><path d="M999 184l-95 98 168 159z" fill="#6bc1bf" stroke="#6bc1bf" stroke-width="1.51"/><path d="M1046 1042l25 86 78-9z" fill="#3673ae" stroke="#3673ae" stroke-width="1.51"/><path d="M1003 691l11 194 136-63z" fill="#2f97bf" stroke="#2f97bf" stroke-width="1.51"/><path d="M1083 513l-80 178 148-146z" fill="#39aac3" stroke="#39aac3" stroke-width="1.51"/><path d="M750-244l127 62 137-20z" fill="#b0dcc6" stroke="#b0dcc6" stroke-width="1.51"/><path d="M1003 691l-97 37 108 157z" fill="#33a0c1" stroke="#33a0c1" stroke-width="1.51"/><path d="M1014-202L941-71l123 56z" fill="#a5d4bd" stroke="#a5d4bd" stroke-width="1.51"/><path d="M927 1173l126 89 18-134z" fill="#396fa7" stroke="#396fa7" stroke-width="1.51"/><path d="M904 282l-55 103 223 56z" fill="#61c0c0" stroke="#61c0c0" stroke-width="1.51"/><path d="M1072 441l-211 88 222-16z" fill="#48b5c3" stroke="#48b5c3" stroke-width="1.51"/><path d="M861 529l142 162 80-178z" fill="#3eb1c4" stroke="#3eb1c4" stroke-width="1.51"/><path d="M922 80l77 104 37-145z" fill="#92cfbd" stroke="#92cfbd" stroke-width="1.51"/><path d="M1014 885l-116 81 148 76z" fill="#3787b6" stroke="#3787b6" stroke-width="1.51"/><path d="M1046 1042l-119 131 144-45z" fill="#3b75ae" stroke="#3b75ae" stroke-width="1.51"/><path d="M849 385l12 144 211-88z" fill="#56bcc2" stroke="#56bcc2" stroke-width="1.51"/><path d="M941-71l95 110 28-54z" fill="#9ed0bc" stroke="#9ed0bc" stroke-width="1.51"/><path d="M927 1173l-4 139 130-50z" fill="#366d9e" stroke="#366d9e" stroke-width="1.51"/><path d="M898 966l29 207 119-131z" fill="#3c7eb1" stroke="#3c7eb1" stroke-width="1.51"/><path d="M906 728l-60 69 168 88z" fill="#3a9ebe" stroke="#3a9ebe" stroke-width="1.51"/><path d="M941-71L922 80l114-41z" fill="#9cd3bc" stroke="#9cd3bc" stroke-width="1.51"/><path d="M861 529l45 199 97-37z" fill="#40adc3" stroke="#40adc3" stroke-width="1.51"/><path d="M846 797l52 169 116-81z" fill="#3c93ba" stroke="#3c93ba" stroke-width="1.51"/><path d="M877-182l64 111 73-131z" fill="#aad8c2" stroke="#aad8c2" stroke-width="1.51"/><path d="M922 80l-18 202 95-98z" fill="#86ccbd" stroke="#86ccbd" stroke-width="1.51"/><path d="M791 960l-6 229 113-223z" fill="#4c85b1" stroke="#4c85b1" stroke-width="1.51"/><path d="M861 529L726 685l180 43z" fill="#4cb1c1" stroke="#4cb1c1" stroke-width="1.51"/><path d="M678-44l21 120 223 4z" fill="#a7dab9" stroke="#a7dab9" stroke-width="1.51"/><path d="M712 186l192 96 18-202z" fill="#8ed0bc" stroke="#8ed0bc" stroke-width="1.51"/><path d="M785 1189l138 123 4-139z" fill="#4371a1" stroke="#4371a1" stroke-width="1.51"/><path d="M898 966l-113 223 142-16z" fill="#487cae" stroke="#487cae" stroke-width="1.51"/><path d="M678-44L922 80l19-151z" fill="#a7d9ba" stroke="#a7d9ba" stroke-width="1.51"/><path d="M877-182L678-44l263-27z" fill="#afdcbb" stroke="#afdcbb" stroke-width="1.51"/><path d="M846 797l-55 163 107 6z" fill="#4793b7" stroke="#4793b7" stroke-width="1.51"/><path d="M699 76l13 110L922 80z" fill="#9fd7ba" stroke="#9fd7ba" stroke-width="1.51"/><path d="M785 1189l-19 138 157-15z" fill="#447099" stroke="#447099" stroke-width="1.51"/><path d="M726 685l120 112 60-69z" fill="#48a9c0" stroke="#48a9c0" stroke-width="1.51"/><path d="M849 385l-84 121 96 23z" fill="#5dbec1" stroke="#5dbec1" stroke-width="1.51"/><path d="M712 186l137 199 55-103z" fill="#7ccabd" stroke="#7ccabd" stroke-width="1.51"/><path d="M720 882l71 78 55-163z" fill="#4e98b9" stroke="#4e98b9" stroke-width="1.51"/><path d="M712 186l-27 220 164-21z" fill="#79cabd" stroke="#79cabd" stroke-width="1.51"/><path d="M765 506l-39 179 135-156z" fill="#56b9c1" stroke="#56b9c1" stroke-width="1.51"/><path d="M750-244L678-44l199-138z" fill="#b5e0bf" stroke="#b5e0bf" stroke-width="1.51"/><path d="M685 406l80 100 84-121z" fill="#6ac3bf" stroke="#6ac3bf" stroke-width="1.51"/><path d="M726 685l-6 197 126-85z" fill="#50a5bd" stroke="#50a5bd" stroke-width="1.51"/><path d="M612 267l73 139 27-220z" fill="#87cfbb" stroke="#87cfbb" stroke-width="1.51"/><path d="M590 796l130 86 6-197z" fill="#59a9bc" stroke="#59a9bc" stroke-width="1.51"/><path d="M579 1319l187 8 19-138z" fill="#4f7397" stroke="#4f7397" stroke-width="1.51"/><path d="M577 987l-39 112 247 90z" fill="#6186ac" stroke="#6186ac" stroke-width="1.51"/><path d="M577 987l208 202 6-229z" fill="#5788af" stroke="#5788af" stroke-width="1.51"/><path d="M720 882L577 987l214-27z" fill="#5793b3" stroke="#5793b3" stroke-width="1.51"/><path d="M550 590l176 95 39-179z" fill="#60bbc0" stroke="#60bbc0" stroke-width="1.51"/><path d="M538 1099l41 220 206-130z" fill="#5d7ba2" stroke="#5d7ba2" stroke-width="1.51"/><path d="M609 713l-19 83 136-111z" fill="#5eb1be" stroke="#5eb1be" stroke-width="1.51"/><path d="M545-235L678-44l72-200z" fill="#bee4c0" stroke="#bee4c0" stroke-width="1.51"/><path d="M685 406L550 590l215-84z" fill="#69c3bf" stroke="#69c3bf" stroke-width="1.51"/><path d="M545-235l14 167 119 24z" fill="#c3e6b9" stroke="#c3e6b9" stroke-width="1.51"/><path d="M550 590l59 123 117-28z" fill="#64b8be" stroke="#64b8be" stroke-width="1.51"/><path d="M609 386l-59 204 135-184z" fill="#76c8be" stroke="#76c8be" stroke-width="1.51"/><path d="M612 267l-3 119 76 20z" fill="#80cdbb" stroke="#80cdbb" stroke-width="1.51"/><path d="M699 76l-93 36 106 74z" fill="#a5dab8" stroke="#a5dab8" stroke-width="1.51"/><path d="M590 796l-13 191 143-105z" fill="#609db5" stroke="#609db5" stroke-width="1.51"/><path d="M678-44l-72 156 93-36z" fill="#addeb7" stroke="#addeb7" stroke-width="1.51"/><path d="M606 112l6 155 100-81z" fill="#9dd8b9" stroke="#9dd8b9" stroke-width="1.51"/><path d="M559-68l47 180 72-156z" fill="#b7e1b6" stroke="#b7e1b6" stroke-width="1.51"/><path d="M538 1099l-75 84 116 136z" fill="#6b80a1" stroke="#6b80a1" stroke-width="1.51"/><path d="M484 875l93 112 13-191z" fill="#6ba1b6" stroke="#6ba1b6" stroke-width="1.51"/><path d="M559-68l-72 191 119-11z" fill="#b8e2b6" stroke="#b8e2b6" stroke-width="1.51"/><path d="M415 492l135 98 59-204z" fill="#80cbbd" stroke="#80cbbd" stroke-width="1.51"/><path d="M438 378l-23 114 194-106z" fill="#8cd0bb" stroke="#8cd0bb" stroke-width="1.51"/><path d="M447 269l-9 109 171 8z" fill="#93d4b9" stroke="#93d4b9" stroke-width="1.51"/><path d="M550 590l-138 80 197 43z" fill="#74bdbe" stroke="#74bdbe" stroke-width="1.51"/><path d="M606 112l-119 11 125 144z" fill="#a9ddb7" stroke="#a9ddb7" stroke-width="1.51"/><path d="M487 123l-40 146 165-2z" fill="#a7dbb8" stroke="#a7dbb8" stroke-width="1.51"/><path d="M447 269l162 117 3-119z" fill="#92d4ba" stroke="#92d4ba" stroke-width="1.51"/><path d="M412 670l178 126 19-83z" fill="#6fb6bd" stroke="#6fb6bd" stroke-width="1.51"/><path d="M545-235L392-110l167 42z" fill="#ceebba" stroke="#ceebba" stroke-width="1.51"/><path d="M412 670l72 205 106-79z" fill="#74b1ba" stroke="#74b1ba" stroke-width="1.51"/><path d="M392-110l95 233 72-191z" fill="#c8e9b5" stroke="#c8e9b5" stroke-width="1.51"/><path d="M430 939l108 160 39-112z" fill="#7094af" stroke="#7094af" stroke-width="1.51"/><path d="M484 875l-54 64 147 48z" fill="#729db2" stroke="#729db2" stroke-width="1.51"/><path d="M463 1183l-61 156 177-20z" fill="#6a7c95" stroke="#6a7c95" stroke-width="1.51"/><path d="M300 1290l-263 21 365 28z" fill="#7c818f" stroke="#7c818f" stroke-width="1.51"/><path d="M392-110l-78 78 173 155z" fill="#d0ecb4" stroke="#d0ecb4" stroke-width="1.51"/><path d="M410-247l-18 137 153-125z" fill="#d6efbf" stroke="#d6efbf" stroke-width="1.51"/><path d="M415 492l-3 178 138-80z" fill="#81c7bd" stroke="#81c7bd" stroke-width="1.51"/><path d="M430 939l33 244 75-84z" fill="#758eab" stroke="#758eab" stroke-width="1.51"/><path d="M430 939l-199 163 232 81z" fill="#8292aa" stroke="#8292aa" stroke-width="1.51"/><path d="M412 670l-87 12 159 193z" fill="#81babc" stroke="#81babc" stroke-width="1.51"/><path d="M325 682l-73 105 232 88z" fill="#87b7b9" stroke="#87b7b9" stroke-width="1.51"/><path d="M252 787l178 152 54-64z" fill="#82aab5" stroke="#82aab5" stroke-width="1.51"/><path d="M332 267l115 2 40-146z" fill="#b1dfb7" stroke="#b1dfb7" stroke-width="1.51"/><path d="M266 94l66 173 155-144z" fill="#c2e6b5" stroke="#c2e6b5" stroke-width="1.51"/><path d="M314-32L266 94l221 29z" fill="#ceebb4" stroke="#ceebb4" stroke-width="1.51"/><path d="M233 983l-2 119 199-163z" fill="#889cad" stroke="#889cad" stroke-width="1.51"/><path d="M332 267l106 111 9-109z" fill="#a5dbb8" stroke="#a5dbb8" stroke-width="1.51"/><path d="M300 1290l102 49 61-156z" fill="#768096" stroke="#768096" stroke-width="1.51"/><path d="M231 1102l69 188 163-107z" fill="#8288a2" stroke="#8288a2" stroke-width="1.51"/><path d="M336-237l56 127 18-137z" fill="#def2be" stroke="#def2be" stroke-width="1.51"/><path d="M325 682l87-12 3-178z" fill="#89c7bd" stroke="#89c7bd" stroke-width="1.51"/><path d="M257 440l158 52 23-114z" fill="#99d4ba" stroke="#99d4ba" stroke-width="1.51"/><path d="M237 486l88 196 90-190z" fill="#91cfbd" stroke="#91cfbd" stroke-width="1.51"/><path d="M252 787l-19 196 197-44z" fill="#88a8b3" stroke="#88a8b3" stroke-width="1.51"/><path d="M332 267l-75 173 181-62z" fill="#a3dab8" stroke="#a3dab8" stroke-width="1.51"/><path d="M-12-245l140 66 208-58z" fill="#eef8bf" stroke="#eef8bf" stroke-width="1.51"/><path d="M257 440l-20 46 178 6z" fill="#9bd4bb" stroke="#9bd4bb" stroke-width="1.51"/><path d="M188 868l45 115 19-196z" fill="#8eadb4" stroke="#8eadb4" stroke-width="1.51"/><path d="M336-237L314-32l78-78z" fill="#ddf2b7" stroke="#ddf2b7" stroke-width="1.51"/><path d="M175 1251l-138 60 263-21z" fill="#848593" stroke="#848593" stroke-width="1.51"/><path d="M231 1102l-56 149 125 39z" fill="#86889e" stroke="#86889e" stroke-width="1.51"/><path d="M237 486l-76 104 164 92z" fill="#96cebc" stroke="#96cebc" stroke-width="1.51"/><path d="M122 357l135 83 75-173z" fill="#acddb8" stroke="#acddb8" stroke-width="1.51"/><path d="M266 94L79 207l253 60z" fill="#c6e8b5" stroke="#c6e8b5" stroke-width="1.51"/><path d="M128-179L314-32l22-205z" fill="#e4f4b9" stroke="#e4f4b9" stroke-width="1.51"/><path d="M79 207l43 150 210-90z" fill="#bbe3b6" stroke="#bbe3b6" stroke-width="1.51"/><path d="M128-179L102-41l212 9z" fill="#e6f5b2" stroke="#e6f5b2" stroke-width="1.51"/><path d="M137 739l115 48 73-105z" fill="#91c0bb" stroke="#91c0bb" stroke-width="1.51"/><path d="M161 590l-24 149 188-57z" fill="#96c6bc" stroke="#96c6bc" stroke-width="1.51"/><path d="M119 47l147 47 48-126z" fill="#d8efb3" stroke="#d8efb3" stroke-width="1.51"/><path d="M102-41l17 88 195-79z" fill="#dff2b2" stroke="#dff2b2" stroke-width="1.51"/><path d="M113 1142l62 109 56-149z" fill="#8f8da5" stroke="#8f8da5" stroke-width="1.51"/><path d="M119 47L79 207 266 94z" fill="#d5efb3" stroke="#d5efb3" stroke-width="1.51"/><path d="M92 1043l139 59 2-119z" fill="#8f9aab" stroke="#8f9aab" stroke-width="1.51"/><path d="M122 357l115 129 20-46z" fill="#a7d9ba" stroke="#a7d9ba" stroke-width="1.51"/><path d="M137 739l51 129 64-81z" fill="#92b8b8" stroke="#92b8b8" stroke-width="1.51"/><path d="M188 868l-96 175 141-60z" fill="#91a3af" stroke="#91a3af" stroke-width="1.51"/><path d="M122 357l39 233 76-104z" fill="#a4d7ba" stroke="#a4d7ba" stroke-width="1.51"/><path d="M92 1043l21 99 118-40z" fill="#9295a9" stroke="#9295a9" stroke-width="1.51"/><path d="M122 357l-137 57 176 176z" fill="#acdbb9" stroke="#acdbb9" stroke-width="1.51"/><path d="M-15 414l-22 135 198 41z" fill="#a8d8bc" stroke="#a8d8bc" stroke-width="1.51"/><path d="M137 739L26 831l162 37z" fill="#97b8b7" stroke="#97b8b7" stroke-width="1.51"/><path d="M26 831l66 212 96-175z" fill="#96abb1" stroke="#96abb1" stroke-width="1.51"/><path d="M113 1142l-76 169 138-60z" fill="#8c899a" stroke="#8c899a" stroke-width="1.51"/><path d="M14-106l88 65 26-138z" fill="#edf8b4" stroke="#edf8b4" stroke-width="1.51"/><path d="M-37 549l-19 188 193 2z" fill="#a1cabd" stroke="#a1cabd" stroke-width="1.51"/><path d="M-37 549l174 190 24-149z" fill="#a0cebb" stroke="#a0cebb" stroke-width="1.51"/><path d="M26 831l-89 118 155 94z" fill="#9aa9b3" stroke="#9aa9b3" stroke-width="1.51"/><path d="M-60 98L79 207l40-160z" fill="#dcf1b4" stroke="#dcf1b4" stroke-width="1.51"/><path d="M79 207l-113 51 156 99z" fill="#c3e6b6" stroke="#c3e6b6" stroke-width="1.51"/><path d="M-56 737l82 94 111-92z" fill="#9dc0ba" stroke="#9dc0ba" stroke-width="1.51"/><path d="M-12-245l26 139 114-73z" fill="#f2fabc" stroke="#f2fabc" stroke-width="1.51"/><path d="M-111 1167l148 144 76-169z" fill="#938da2" stroke="#938da2" stroke-width="1.51"/><path d="M-69 1100l-42 67 224-25z" fill="#9993ac" stroke="#9993ac" stroke-width="1.51"/><path d="M102-41L-60 98l179-51z" fill="#e3f4b3" stroke="#e3f4b3" stroke-width="1.51"/><path d="M-34 258l19 156 137-57z" fill="#bae2b9" stroke="#bae2b9" stroke-width="1.51"/><path d="M92 1043l-161 57 182 42z" fill="#9897aa" stroke="#9897aa" stroke-width="1.51"/><path d="M14-106L-60 98 102-41z" fill="#e9f6b4" stroke="#e9f6b4" stroke-width="1.51"/><path d="M-63 949l-6 151 161-57z" fill="#9a9fb0" stroke="#9a9fb0" stroke-width="1.51"/><path d="M-128 35l68 63 74-204z" fill="#e9f7b9" stroke="#e9f7b9" stroke-width="1.51"/><path d="M-60 98l26 160 113-51z" fill="#d3eeb8" stroke="#d3eeb8" stroke-width="1.51"/><path d="M-121 662l65 75 19-188z" fill="#a4cec4" stroke="#a4cec4" stroke-width="1.51"/><path d="M-111 1167l-45 171 193-27z" fill="#8e899c" stroke="#8e899c" stroke-width="1.51"/><path d="M-12-245l-169 53 195 86z" fill="#f5fbc3" stroke="#f5fbc3" stroke-width="1.51"/><path d="M-56 737l-119 134 201-40z" fill="#9ebbbf" stroke="#9ebbbf" stroke-width="1.51"/><path d="M-175 871l112 78 89-118z" fill="#9db2bb" stroke="#9db2bb" stroke-width="1.51"/><path d="M-34 258l-121 84 140 72z" fill="#bde4bf" stroke="#bde4bf" stroke-width="1.51"/><path d="M-221-102l93 137L14-106z" fill="#f0f9bc" stroke="#f0f9bc" stroke-width="1.51"/><path d="M-181-192l-40 90 235-4z" fill="#f6fbc3" stroke="#f6fbc3" stroke-width="1.51"/><path d="M-143 980l74 120 6-151z" fill="#9ba2b6" stroke="#9ba2b6" stroke-width="1.51"/><path d="M-60 98l-108 195 134-35z" fill="#d1ecbe" stroke="#d1ecbe" stroke-width="1.51"/><path d="M-173 559l136-10 22-135z" fill="#acdac4" stroke="#acdac4" stroke-width="1.51"/><path d="M-155 342l-18 217 158-145z" fill="#b4dec4" stroke="#b4dec4" stroke-width="1.51"/><path d="M-173 559l52 103 84-113z" fill="#a7d4c6" stroke="#a7d4c6" stroke-width="1.51"/><path d="M-168 293l13 49 121-84z" fill="#c5e7c2" stroke="#c5e7c2" stroke-width="1.51"/><path d="M-175 871l32 109 80-31z" fill="#9dacbc" stroke="#9dacbc" stroke-width="1.51"/><path d="M-128 35l-40 258L-60 98z" fill="#ddf2bf" stroke="#ddf2bf" stroke-width="1.51"/><path d="M-121 662l-54 209 119-134z" fill="#a1c3c5" stroke="#a1c3c5" stroke-width="1.51"/><path d="M-143 980l32 187 42-67z" fill="#9b9ab3" stroke="#9b9ab3" stroke-width="1.51"/><path d="M-143 980l-13 358 45-171z" fill="#9b92b1" stroke="#9b92b1" stroke-width="1.51"/><path d="M-221-102l53 395 40-258z" fill="#e6f5c1" stroke="#e6f5c1" stroke-width="1.51"/><path d="M-173 559l-2 312 54-209z" fill="#a4cac9" stroke="#a4cac9" stroke-width="1.51"/><path d="M-175 871l19 467 13-358z" fill="#9c9db8" stroke="#9c9db8" stroke-width="1.51"/><path d="M-168 293l-5 266 18-217z" fill="#bae1c7" stroke="#bae1c7" stroke-width="1.51"/><path d="M-221-102l48 661 5-266z" fill="#ceebc5" stroke="#ceebc5" stroke-width="1.51"/><path d="M-221-102l46 973 2-312z" fill="#b6dfc9" stroke="#b6dfc9" stroke-width="1.51"/></svg>
