<svg xmlns="http://www.w3.org/2000/svg" viewBox="0 0 500 320"><g opacity=".1" fill="#101010"><path d="M96.5 257.3c0-1.7-1.6-3.2-3.3-3.2H17.7c-1.7 0-3.4 1.4-3.4 3.2v49.3H5l.7 2.103c.1.198 2 5.698 9.2 5.698h80.9c7 0 9-5.101 9.2-5.698l.7-2.103h-9.2v-49.3zm-79.6.1c0-.4.4-.603.8-.603h75.4c.4 0 .8.2.8.603v50.1h-77v-50.1zm85.5 51.4c-.9 1.3-2.8 3-6.5 3H15c-3.8 0-5.6-1.7-6.4-3h93.8z"/><path d="M19.1 258.9h72.6v46H19.1zm321.7-84.6H377c.9 0 3 .101 3.5-1.8s-1.1-2.7-2.3-3.5c-1-.6-2.7-1.6-3.3-2.7-1.2-1.899-1.7-5.8-1.803-9.6h45.7c2.3 0 4.3-1.8 4.3-4.2v-83c0-2.3-1.897-4.4-4.197-4.4H298.5c-2.3 0-4.3 2.1-4.3 4.5v82.9c0 2.3 1.899 4.2 4.3 4.2h46.1c0 3.4-.5 7.7-1.697 9.6-.7 1.101-2.2 2-3.303 2.7-1.197.8-2.8 1.7-2.3 3.5.5 1.9 2.6 1.8 3.5 1.8zM297.6 69.5c0-.5.301-1 .801-1H418.8c.5 0 .8.5.8 1v72.1h-122V69.5zm.9 84.1c-.5 0-.8-.6-.8-1.2v-9.1h122.1v9.1h-.1c0 .5-.3 1.2-.8 1.2H298.5zm47.1 14.4c2.103-3.5 2.2-10.5 2.103-12.7h22c0 2.1.2 9.2 2.3 12.7 1 1.4 2.4 2.4 3.6 3.2h-33.399c1.196-.9 2.596-1.9 3.396-3.2z"/><path d="M300.6 71.5h116.103v67.1H300.6zm112.1 112.9l1.2-6h1.897c.4 0 .603.1.7.199.1.101.1.398 0 .801l-1 5v.1h2.8c.3.1.3.1.3 0l1-5.6c.103-.7 0-1.301-.3-1.7-.5-.601-1.3-1-2.5-1h-2.3l.5-2.7v-.1h-2.701c-.1 0-.1 0-.1.1l-1.103 5.6c-.197-1.699-1.3-2.699-3.397-2.897h-5c-.103 0-.103 0-.103.1l-2.197 11v.103h2.7c.103 0 .103 0 .103-.103l.5-2.698h2.5c1.6 0 3.3-.899 4.2-2.602l-.5 2.398v.102h2.7c.101-.003.101-.003.101-.103zm-7-2.1h-1.5l.6-3.8h1.7c.4 0 1.5.1 1.5 1.1-.1 2.3-1.2 2.6-2.3 2.7zm15-6l-2.2 11v.101h2.703c.1 0 .1 0 .1-.101l.5-2.7h2.5c2.4 0 4.8-1.897 4.8-5.199.103-1.898-1-3.101-3.3-3.198h-5c-.103-.003-.103-.003-.103.097zm2.3 2.2h1.7c.397 0 1.5.1 1.5 1.1-.103 2.301-1.2 2.603-2.3 2.7h-1.5l.6-3.8zm50 64.5v-39.1c.1-1.9-1.5-3.4-3.4-3.4h-55.4c-1.9 0-3.4 1.5-3.4 3.4V243c0 1.9 1.5 3.4 3.4 3.4h55.4c1.9 0 3.4-1.5 3.4-3.4zm-58.9 1.3c-.697 0-1.197-.5-1.197-1.2v-38.8c0-.7.5-1.2 1.197-1.2h55.6c.7 0 1.2.5 1.2 1.2v38.8c0 .7-.5 1.2-1.2 1.2h-55.6z"/><path d="M416.3 204.8h48.103v37.4H416.3zm51.4 16.7c-1.103 0-2.103.9-2.103 2.1 0 1.2.9 2.103 2.103 2.103 1.1 0 2.1-.9 2.1-2.103 0-1.2-.9-2.1-2.1-2.1zM68.5 67.1h39.1c1.9 0 3.4-1.5 3.4-3.4V8.3c.1-1.9-1.5-3.4-3.4-3.4H68.5c-1.9 0-3.4 1.5-3.4 3.4v55.4c0 1.9 1.5 3.4 3.4 3.4zM67.2 8.3c0-.7.5-1.2 1.2-1.2h38.8c.7 0 1.2.5 1.2 1.2v55.6h.1c0 .7-.5 1.2-1.2 1.2H68.4c-.7 0-1.2-.5-1.2-1.2V8.3z"/><path d="M69.4 10.5h37.4v48.1H69.4zM88 59.8c-1.1 0-2.1.9-2.1 2.1 0 1.1.9 2.1 2.1 2.1 1.1 0 2.1-.9 2.1-2.1-.1-1.2-1-2.1-2.1-2.1zm341.7-11.6c.3 1.2 1.5 1.8 2.7 1.5l.6 2.1c.3 1.1 1.5 1.8 2.7 1.5l.6 2.1c.3 1.1 1.5 1.8 2.7 1.5l4.2-1.2c1.1-.3 1.8-1.5 1.5-2.7L440 36.3c-.3-1.1-1.5-1.8-2.7-1.5l-4.2 1.2c-1.1.3-1.8 1.5-1.5 2.7l-.6-2.1C427.8 25 434.5 13 446.1 9.8c11.5-3.2 23.5 3.6 26.7 15.1l.6 2.1c-.303-1.1-1.5-1.8-2.7-1.5l-4.2 1.2c-1.1.3-1.8 1.5-1.5 2.7l4.7 16.7c.3 1.1 1.5 1.8 2.7 1.5l2.2-.6c2.5 1.1 7.7 2.6 15.103.8 1.7-.4 3-.2 3.6.7.7 1 .3 2.8-.8 4.4-2.6 3.5-8.8 6.3-18.6 4 .1-.4-.2-.8-.5-.8l-7-1.6h-.2c-.3 0-.603.2-.7.6v.1l-.9-.2c-.397-.1-.897-.1-1.197 0-.303.1-.4.3-.2.5s.7.5 1.1.6l.9.2-.103.3c-.1.4.2.8.5.9l7 1.6h.2c.3 0 .603-.2.7-.6 2.6.6 5 .9 7.1.9 6.4 0 10.7-2.5 12.9-5.4 1.6-2.5 1.9-4.9.9-6.4-.9-1.4-2.803-1.8-5.103-1.3-5.5 1.4-9.7.7-12.397-.1.897-.5 1.397-1.5 1.1-2.5l-.6-2.1c1.1-.3 1.8-1.5 1.5-2.7l-.603-2.1c1.2-.3 1.8-1.5 1.5-2.7L477 23.7c-3.9-13.8-18.2-21.9-32.1-18.1-13.8 3.9-21.9 18.2-18.1 32.1l2.9 10.5zm-97.4 4.9H349c2 0 3.7-1.7 3.7-3.7V8.6c-.1-2.1-1.7-3.7-3.7-3.7h-16.7c-2 0-3.7 1.7-3.7 3.7v40.8c0 2 1.7 3.7 3.7 3.7zm-1.9-44.5c0-1.3 1.1-2.4 2.397-2.4H349c1.3 0 2.4 1.1 2.4 2.4v40.3c0 1.3-1.103 2.4-2.4 2.4h-16.2c-1.3 0-2.397-1.1-2.397-2.4L330.4 8.6z"/><path d="M331.6 13.1h18.103v31.8H331.6zm6.9-2.2h4.5c.2 0 .4-.2.4-.4s-.2-.4-.4-.4h-4.5c-.2 0-.4.2-.4.4s.2.4.4.4zm2.3 35c-1.2 0-2.3 1-2.3 2.3 0 1.3 1 2.3 2.3 2.3s2.3-1 2.3-2.3c-.1-1.3-1.1-2.3-2.3-2.3zm41.3 230.7c2 0 3.7-1.699 3.7-3.699v-16.698c-.1-2.103-1.7-3.7-3.7-3.7h-40.8c-2 0-3.7 1.7-3.7 3.7V272.9c0 2 1.7 3.699 3.7 3.699h40.8v.001zm-42.7-4.2v-16.2c0-1.3 1.1-2.4 2.397-2.4H382c1.3 0 2.4 1.101 2.4 2.4v16.2h.1c0 1.3-1.1 2.397-2.4 2.397h-40.3c-1.3.003-2.4-1.097-2.4-2.397z"/><path d="M346.2 255.5H378v18.1h-31.8zm34.4 11.6c.2 0 .4-.199.4-.397v-4.5c0-.2-.2-.4-.4-.4-.197 0-.397.2-.397.4v4.5c-.003.197.197.397.397.397zm-35.6-2.6c-.1-1.3-1.1-2.3-2.3-2.3-1.3 0-2.3 1-2.3 2.3 0 1.2 1 2.3 2.3 2.3 1.2 0 2.3-1 2.3-2.3zM97.9 93.4v.6c0 .9-.5 1.4-1.4 1.4h-.7c-.1-.6-.7-.9-1.6-.9h-5.4c-.8 0-1.5.3-1.6.9h-1.8c-.9 0-1.7.9-1.7 1.8v22.2c0 .9.8 1.4 1.7 1.4H128c.9 0 1.7-.6 1.7-1.4V97.1c.1-.8-.8-1.7-1.7-1.7h-11.1c-.9 0-1.8-.5-1.8-1.4v-.6c0-.9-.5-1.4-1.4-1.4h-14c-.9 0-1.8.5-1.8 1.4zm8.9 22.3c-4 0-7.2-3.2-7.2-7.2s3.2-7.2 7.2-7.2 7.2 3.2 7.2 7.2-3.3 7.2-7.2 7.2zm-5.3-20.3H112c.5 2.1 2.5 3.4 4.9 3.4h9.4v18.5h-14.1c3-1.7 5-5.1 5.1-8.9 0-5.8-4.7-10.5-10.5-10.5s-10.5 4.7-10.5 10.5c0 3.8 2 7.2 5.1 8.9H87.2V98.8h9.4c2.4 0 4.3-1.3 4.9-3.4z"/><path d="M106.8 103.4c-.6 0-1.2.1-1.8.3.5.2.9.7.9 1.3 0 .8-.7 1.5-1.5 1.5s-1.4-.6-1.5-1.4c-.8.9-1.2 2-1.2 3.3 0 2.8 2.3 5.1 5.1 5.1s5.1-2.3 5.1-5.1c-.1-2.7-2.4-5-5.1-5zm345 75.7c2.603 0 4.7-2.1 4.7-4.699V136.8c1.7-.8 3.1-1.9 4-3.4.8-1.2 1.2-2.7 1.2-4.5.1-3.7-2-7-5.2-8.7v7.6l-4.7 2.7-4.7-2.7v-7.6c-3 1.7-5.3 5-5.3 8.8 0 1.7.4 3.2 1.2 4.4.8 1.4 2.4 2.6 4.1 3.4v37.6c0 2.6 2.1 4.7 4.7 4.7zm-.1-3.5c-.4-.199-.603-.699-.4-1.1s.7-.6 1.103-.4c.397.2.6.7.397 1.103-.3.397-.7.597-1.1.397zm.5-2.8c.2-.1.397-.1.5.101.1.199 0 .399-.103.5-.197.102-.397 0-.5-.101-.097-.2-.097-.4.103-.5zm1.9 2.4c-.1.7-.5 1.399-1.197 1.7-.2.1-.4 0-.5-.103-.103-.198 0-.397.1-.5.4-.198.8-.698.8-1.198 0-.399-.1-.699-.3-1.102v.102c-.1-.199 0-.399.1-.5.2-.102.4 0 .5.198.397.203.597.803.497 1.403zm-10.4-44c1.7 2.7 5.3 4.1 9.5 4.1 1.6 0 3.1-.3 4.397-.7-.6.3-1.3 1-2.197 1l-.103.1c-.8.3-1.6.5-2.5.6-.2 0-.397 0-.397.1v36h-.303c-.197 0-.5 0-.5.1v-36h-.897v36.3c-.4.3-1 .8-1.3 1.5-.103.2-.103.5-.103.8v.204c0 1.102.603 2 1.603 2.399h-.1c-1.3-.399-2.3-1.5-2.3-2.899v-38.701c-2.1-.803-4.2-2.403-4.8-4.903zm-71.8 85.9c0-2.6-.7-5.1-1.9-7.397.1.5.1 1 .1 1.6 0 1.603-.3 3.302-1.197 5.5l-4.7 13.7C368.8 227.8 371.9 222.8 371.9 217.1z"/><path d="M356.4 236c10.397 0 18.897-8.5 18.897-18.9.103-10.4-8.397-18.9-18.897-18.9-10.4 0-18.9 8.5-18.9 18.899C337.5 227.5 346 236 356.4 236zm0-35.9c9.397 0 17.1 7.7 17.1 17.103 0 9.397-7.6 17.1-17.1 17.1-9.4 0-17.103-7.698-17.103-17.1C339.3 207.8 347 200.1 356.4 200.1z"/><path d="M348.7 208.5c.8 0 .897 1.2.1 1.3 0 0-.8.101-1.8.101l5.6 16.699 3.4-10.1-2.4-6.6c-.8-.103-1.6-.103-1.6-.103-.8-.1-.7-1.3.1-1.3 0 0 2.5.2 4.103.2 1.6 0 4.1-.2 4.1-.2.8 0 .9 1.2.103 1.3 0 0-.801.103-1.801.103l5.601 16.6 1.5-5.2c.7-2.1 1.2-3.6 1.2-4.899 0-1.898-.7-3.198-1.301-4.301-.802-1.3-1.5-2.397-1.5-3.6 0-1.4 1.101-2.7 2.601-2.7h.2c-2.801-2.5-6.4-4.1-10.4-4.1-5.398 0-10.2 2.8-12.898 7h1c1.592 0 4.092-.2 4.092-.2z"/><path d="M356.7 218.5l-4.6 13.5c1.4.4 2.803.6 4.4.6 1.8 0 3.5-.3 5.1-.897 0-.103-.1-.103-.1-.2l-4.8-13.003zm-7 12.6l-7.4-20.199c-.8 1.899-1.3 4-1.3 6.302 0 6.097 3.6 11.397 8.7 13.897zM158.8 104.2h-2.6v8.2h2.6v-3.1h2.6v3.1h2.5v-8.2h-2.5v2.6h-2.6zm6.4 2.6h2.2v5.6h2.6v-5.6h2.5v-2.6h-7.3zm11.2 1.4l1.7 2.9h.1l1.6-2.9v4.2h3.1v-8.2h-3l-1.7 2.8-1.7-2.8h-2.7v8.2h2.6zm14.2 1.1h-3.9v-5.1h-2.6v8.2h6.5zm3.7 6.5h-42.1l3.8 43 17.2 4.8 17.3-4.8 3.8-43zm-8 10.4l-.2 2.6-.1 1.2h-20.1l.5 5.2h19.2l-.1 1.5-1.2 14v.9l-10.7 3h-.1l-10.9-3-.7-8.2h5.3l.4 4.2 5.9 1.5h.1l5.8-1.5.5-6.8h-18.3l-1.3-14.5-.1-1.4h26.4l-.3 1.3zm290.4 140.2l-.8-.7-1-.3-9.803-2.7-2.3-.601-1.7 1.601c-1.197 1.1-2.397 1.6-3.5 1.6-1.6 0-3-1.2-3.197-1.3l-1.7-1.9-2.4.801-8.1 2.199-1 .301-.8.699-15.9 14.2-2.9 2.601 2.2 3.102 5.9 8.398 2.3 3.302 3.5-2.103 3-1.8v22.7h4.3l30-.1h4.3v-22.7l3.4 1.899 3.4 1.898 2.197-3.2 5.803-8.397 2.1-3.103-2.5-2.601-14.8-13.796zm6.1 25.4l-9.8-5.6-.1 25.8-30 .1V286l-9.5 5.8-5.9-8.399 15.9-14.198 8.1-2.2s2.5 2.602 6.2 2.602c1.897 0 4.1-.699 6.3-2.699l9.8 2.699 14.8 13.801-5.8 8.394zm-335.3-80.2h27.2c.7 0 1.2-.6 1.2-1.199v-19.898c.1-.7-.5-1.2-1.2-1.2h-27.2c-.7 0-1.2.603-1.2 1.2V210.4c0 .7.6 1.2 1.2 1.2zm2.6-1.5v-.2l7.5-7.7 1.7 1.6c.3.3.6.5 1 .601.4.102.8.199 1.1.199.4 0 .7 0 1.1-.1.3-.1.6-.2.8-.3.1 0 .1-.101.2-.101l1.7-1.699 7.5 7.699h-22.6v.001zm24.2-1.9l-7.4-7.5 7.4-7.4v14.9zm-1.499-16.7L162.3 202.1c-.1.103-.2.2-.4.301-.2 0-.3.102-.5.102h-.4c-.1 0-.2-.102-.3-.2l-10.6-10.8 22.701-.003zm-24.301 1.7h.1l7.5 7.399-7.5 7.601h-.1v-15zM41.8 87.7v8.4c0 1.1.8 2 2 2h16.9c1.1 0 2.2-.9 2.2-2v-1h1.3c.6 0 .9-.3.9-.9v-4.7c-.1-.5-.4-.8-.9-.8h-1.3v-1c0-1.1-1.1-2-2.2-2H43.8c-1.1 0-2 .9-2 2zm2.2.1h16.8V96H44v-8.2z"/><path d="M45.3 89.2h2.1v5.6h-2.1zm3.8 0h2.1v5.6h-2.1zm213.5-65.3h2.5V29c0 .6.603 1.2 1.2 1.2.3 0 .7-.3.9-.3l6-6h2.3c0 .7.2 1.3.6 1.8.4.4.9.8 1.603.8h7.698l4.699 4.7c.2 0 .5.2.7.2.5 0 1-.5 1-1v-3.9h1.9c1.3 0 2.399-1.2 2.399-2.6V11.3c-.102-1.3-1.102-2.4-2.5-2.4H285.7v-4c0-1.7-1.2-2.9-2.9-2.9h-20.2c-1.699 0-3.1 1.2-3.1 2.9v15.9c0 .8.3 1.7.9 2.2.6.6 1.3.9 2.2.9zm23.1-12.4h6.2c.6 0 1.1.5 1.1 1.1 0 .5-.5 1-1.1 1h-6.2v-2.1zm0 4.7h6.2c.6 0 1.1.5 1.1 1.1 0 .5-.5 1-1.1 1h-6.2v-2.1zm0 4.5v.1h6.2c.6 0 1.1.5 1.1 1.1 0 .7-.5 1.1-1.1 1.1H285c.5-.9.7-1.5.7-2.3zM261.7 5c0-.5.5-.9 1-.9h20c.5 0 .899.3.899.9v15.6c0 .6-.302 1.1-.899 1.1h-10c-.3 0-.601.1-.8.3l-4.603 4.5v-3.9c0-.6-.397-.9-1-.9h-3.6c-.603 0-1-.6-1-1.1L261.7 5z"/><path d="M264.6 8.9h15.7c.601 0 1.101-.5 1.101-1.1 0-.6-.5-1.1-1.101-1.1h-15.7c-.6 0-1.1.5-1.1 1.1 0 .6.5 1.1 1.1 1.1zm0 4.7h15.7c.601 0 1.101-.5 1.101-1.1s-.5-1.1-1.101-1.1h-15.7c-.6 0-1.1.5-1.1 1.1s.5 1.1 1.1 1.1zm0 4.8h15.7c.601 0 1.101-.5 1.101-1.1 0-.7-.5-1.1-1.101-1.1h-15.7c-.6 0-1.1.5-1.1 1.1 0 .6.5 1.1 1.1 1.1zm115.2 18.9c2.4 1.6 5.4 2.5 8.5 2.5 10.2 0 15.7-8.4 15.7-15.7v-.7c1.1-.8 1.9-1.8 2.8-2.9-.897.5-2.1.7-3.2.9 1.103-.7 2-1.8 2.4-3.1-1.1.6-2.3 1.1-3.5 1.3-1-1.1-2.4-1.7-4-1.7-3.1 0-5.5 2.5-5.5 5.5 0 .4 0 .9.1 1.3-4.6-.2-8.697-2.4-11.397-5.8-.5.8-.7 1.8-.7 2.8 0 1.9 1 3.6 2.5 4.6-.9 0-1.6-.3-2.5-.7v.1c0 2.7 1.9 4.9 4.4 5.4-.5.1-1 .2-1.5.2-.4 0-.7 0-1.103-.1.7 2.2 2.7 3.8 5.2 3.8-1.9 1.5-4.3 2.4-6.9 2.4-.4 0-.9 0-1.3-.1zm-72.9 262.1H302l-4.9 6.397s5.103-1.5 8.103-.8l-8.103 10.5 10.7-8.3c1.5 3.397-.897 8.3-.897 8.3l6.5-4.898V305.7l8-8.101 1.6-8.102-8 1.7-8.103 8.203zM46.4 213.3c-4.4 0-8.4 2-10.9 5.2l4 6.9c.7-2.9 3.5-5.2 6.9-5.2h12c-2.4-4.3-6.9-6.9-12-6.9zm13.9 14.1c0-1.801-.3-3.7-.9-5h-8c1.3 1.3 2.1 3 2.1 5 0 1.5-.5 2.8-1.3 4l-5.7 9.897C54.1 241.2 60.3 235 60.3 227.4z"/><path d="M46.4 222.2c-2.8 0-5.1 2.3-5.1 5.1s2.3 5.101 5.1 5.101 5.1-2.301 5.1-5.101-2.3-5.1-5.1-5.1z"/><path d="M32.4 227.3c0 7 5.2 12.8 11.9 13.8l4-7.1c-.6.4-1.3.4-1.9.4-2.9 0-5.3-1.603-6.5-4l-5.7-9.9c-1.1 2-1.8 4.3-1.8 6.8zm447.8-42.9c.397 0 .897-.103 1.5-.4.6-.3 1.2-.4 1.6-.4.5 0 1.103.103 1.7.4.7.2 1.2.4 1.6.4 1 0 2-.801 3-2.301.603-1.199 1.103-2.302 1.4-3.102-.7 0-1.3-.7-1.8-1.398-.5-.802-.8-1.602-.8-2.5 0-.899.197-1.699.8-2.399.3-.4.7-.8 1.3-1.4-.4-.5-.8-.899-1.2-1.2-.7-.5-1.5-.699-2.5-.699-.5 0-1.2.102-2 .399-.8.3-1.3.4-1.6.4s-.8-.101-1.603-.3c-.8-.2-1.5-.301-2-.301-1.3 0-2.397.601-3.3 1.698-.897 1.103-1.3 2.603-1.3 4.302 0 1.898.6 3.801 1.7 5.801 1.101 2 2.303 3 3.503 3z"/><path d="M483.8 166.7c-.6.8-.897 1.8-.897 3 .5 0 .897-.101 1.197-.2.303-.1.7-.4 1.2-.8.5-.5.8-1 1.103-1.601.197-.602.3-1.102.3-1.5V165c-1.403.3-2.303.9-2.903 1.7zM39.4 30.9l5.3-26.2H15.1l-1.2 5.8h23.8l-.8 3.9H13.2L12 19.9h23.8l-1.4 6.8-9.5 3.2-8.3-3.2.6-2.9h-5.9l-1.4 7 13.7 5.3zm123.3 37.4c.3-.3.3-.6.3-1v-6c.1-.4 0-.7-.2-1-.3-.3-.5-.4-.9-.4s-.7.1-1 .4c-.3.3-.4.6-.4 1v6c0 .4.1.7.3 1 .3.3.5.4.9.4s.7-.1 1-.4zm-7.8 6.7c.3.3.6.4 1 .4s.8-.1 1.1-.4.5-.6.5-1v-2.9h.8c.4 0 .7-.2 1-.5.3-.3.3-.8.3-1.2v-9h-12.5v9h.1c0 .4.1.9.4 1.2.3.3.6.5 1.1.5h1v3c0 .4.1.6.4.9.3.3.6.4 1 .4s.7-.1 1-.4c.3-.3.3-.6.3-1v-2.9h2.1V74c0 .4.1.7.4 1zm-7.1-18.3c-.6.9-.9 2-.9 2.9h12.8c0-.9-.3-2-.9-2.9-.4-1-1.2-1.6-2.2-2.1l1-1.8c.1-.1 0-.2-.1-.3s-.2 0-.3.1l-1 1.8c-.9-.4-1.8-.6-2.8-.6s-1.9.2-2.8.6l-1-1.8c-.1-.1-.2-.1-.3-.1-.1.1-.1.1-.1.3l1 1.8c-1 .5-1.8 1.2-2.4 2.1zm8.2-.3c.1-.1.2-.2.4-.2.1 0 .3.1.4.2.1.1.2.2.2.4-.1.2-.1.3-.2.4-.1.1-.2.2-.4.2-.1 0-.3-.1-.4-.2-.1-.1-.2-.2-.2-.4s.1-.3.2-.4zm-5.9 0c.1-.1.2-.2.4-.2.1 0 .3.1.4.2s.2.2.2.4 0 .3-.2.4c-.1.1-.2.2-.4.2s-.3-.1-.4-.2c-.1-.1-.2-.2-.2-.4 0-.1.1-.3.2-.4zm-3.4 4.9c0-.4-.2-.7-.5-1-.2-.3-.6-.4-1-.4s-.7.1-1 .4c-.3.3-.4.6-.4 1v6c0 .4.2.7.4 1 .3.3.6.4 1 .4s.8-.1 1-.4c.3-.3.5-.6.5-1v-6zm-67.8 108h32.7v-27.5H78.9v27.5zm16.3-10.7h8.2v2.6h-8.2v-2.6zm-11.1 0h3v-3h2.6V153h-2.6v-3h-3v-2.6h3v2.6h2.6v3h3v2.6h-3v3h-2.6v2.6h-3v-2.6z"/><path d="M77.7 137c-2.1 0-3.9 1.7-3.9 3.9v29.7c0 2.103 1.7 3.9 3.9 3.9H113c2.1 0 3.9-1.7 3.9-3.9v-29.7c-.1-2.2-1.8-3.9-3.9-3.9H77.7zm36.8 3.9v29.7h.1c0 .9-.8 1.7-1.7 1.7H77.6c-.9 0-1.7-.8-1.7-1.7v-29.7c0-.9.8-1.7 1.7-1.7h35.2c.9 0 1.7.8 1.7 1.7zm113.8-32.7c-.4-1-1-1.9-1.7-2.6-.7-.7-1.6-1.3-2.6-1.7s-2.1-.6-3.1-.6-2.1.2-3.1.6-1.9 1-2.6 1.7c-.7.7-1.3 1.6-1.7 2.6s-.6 2.1-.6 3.1.2 2.1.6 3.1 1 1.9 1.7 2.6c.7.7 1.6 1.3 2.6 1.7 1 .4 2.1.6 3.1.6 1.7 0 3.2-.5 4.6-1.4l3.9 3.9c.3.3.6.4 1 .4s.7-.1 1-.4c.3-.3.4-.6.4-1s-.1-.8-.4-1l-3.9-3.9c1-1.4 1.4-2.9 1.4-4.6 0-1.1-.2-2.1-.6-3.1zm-3.9 6.7c-1 1-2.2 1.5-3.6 1.5s-2.6-.5-3.6-1.5-1.5-2.2-1.5-3.6.5-2.6 1.5-3.6 2.2-1.5 3.6-1.5 2.6.5 3.6 1.5 1.5 2.2 1.5 3.6c0 1.3-.5 2.6-1.5 3.6zM473 100.4c4.7.2 8.4 2.4 10.5 6 3.9-2.7 6.4-7.2 6.4-12.2-.103-8.3-6.7-15-14.9-15s-14.9 6.7-14.9 14.9c0 3.8 1.4 7.2 3.7 9.8 2.3-2.3 5.5-3.6 9.2-3.5zm9-1c0 .4-.7.6-1.2.3-3.397-2.1-7.7-2.6-12.8-1.4-.5.1-1-.2-1.1-.7-.103-.5.197-1 .697-1.1 5.603-1.3 10.303-.7 14.2 1.6.403.3.703.9.203 1.3zm2-4.2c-.3.5-1 .7-1.6.4-3.9-2.4-10-3.1-14.603-1.7-.6.2-1.2-.2-1.397-.8-.2-.6.197-1.2.8-1.4 5.3-1.6 12-.8 16.5 1.9.5.4.7 1.1.3 1.6zm-17.6-8.7c5.197-1.6 13.8-1.3 19.197 2 .7.4.9 1.2.5 1.9-.397.7-1.3.8-1.897.4-4.7-2.8-12.5-3.1-17-1.7-.7.2-1.5-.2-1.7-.9-.2-.7.2-1.5.9-1.7z"/><path d="M478.6 108.6c-1.1-2.4-3.1-3.7-5.8-3.7-2.1-.1-3.8.7-5.1 2.3 2.1 1.2 4.6 1.9 7.2 1.9 1.3 0 2.5-.2 3.7-.5zm-170.1 66h-.4l-.1.1-.2.2c-.1.1-.2.1-.3.1l-.4.1h-3.4l-2.5-.1h-1.3l-.2.1h-1.5c-1.5 0-2.3-.1-2.4-.1l-.6-.4h-.9v4.4c.101.1.3.3.601.5.102 0 .102-.1.199-.2.103-.1.2-.2.2-.399.101-.301.2-.601.3-1 .103-.398.2-.698.301-.898.102-.2.199-.3.302-.398.101-.102.397-.199.8-.302.398-.1.8-.198 1.2-.198.8 0 1.397 0 1.698.101.102 0 .102 0 .199.101 0 0 .103.1.103.199v3.297l.101 4.9c0 1.897 0 3.5-.101 5 0 .3-.103.5-.103.6-.199.103-.699.302-1.8.603-.399.1-.899.3-.899.6v.703h.802c1.101-.103 2-.2 2.698-.2 1.302 0 2.199 0 2.699.102.603.101 1.301.101 2.201.101h.399v-.3s0-.2-.103-.602c-.197-.101-.299-.101-.6-.199-.102 0-.3-.102-.5-.102-.2-.102-.398-.102-.5-.102s-.2-.1-.2-.1c-.3-.101-.698-.201-1-.4-.1-.301-.198-.6-.1-1v-1.698l-.101-4.104v-3.8l.103-1.8c0-.3.1-.8.198-1.6.302 0 .5-.103.802-.103h3c.1 0 .2.103.3.2 0 0 0 .102.1.3 0 .2.103.5.103.802 0 .301.1.5.2.698.197.7.397 1.103.6 1.5.2 0 .5-.1.8-.198v-1.302l-.397-1c0-1-.103-1.5-.103-1.5v-1.2c-.002-.002-.202-.002-.302-.002zm5.8 3.1c.3 0 .4-.101.5-.3.103-.103 0-.4-.1-.603l-1.5-1.897c-.2-.2-.3-.301-.603-.301-.3 0-.397.101-.6.301l-1.4 1.897c-.197.2-.197.4-.1.5.1.103.2.302.5.302h.9V189.2H311c-.3 0-.4.1-.5.2-.1.1 0 .3.1.5l1.4 1.897c.2.2.3.302.6.302.303 0 .4-.102.603-.302l1.5-1.897c.2-.2.2-.4.1-.5-.1 0-.3-.103-.5-.103h-.7v-11.6l.697.003zM139 29.6c.3 1.2.7 2.3 1.2 3.2.5.9 1.2 1.7 1.9 2.4.8.7 1.6 1.3 2.5 1.7s2 .8 3.1 1.1c1.2.3 2.4.5 3.6.6 1.2.1 2.6.2 4 .2 1.5 0 2.8-.1 4.1-.2 1.2-.1 2.4-.3 3.6-.6s2.2-.6 3.2-1.1c.9-.4 1.8-1 2.6-1.7s1.4-1.5 2-2.4c.5-.9.9-2 1.2-3.2.3-1.2.4-2.6.4-4.2 0-2.9-1-5.3-2.8-7.3l.3-.9c.1-.3.2-.8.2-1.4.1-.6 0-1.3-.1-2.2-.1-.8-.4-1.6-.7-2.5h-1.1c-.4 0-.9.1-1.4.3-.5.1-1.2.4-2.1.9-.8.4-1.7 1-2.7 1.6-1.6-.4-3.8-.7-6.6-.7s-5 .2-6.6.7c-.9-.6-1.8-1.2-2.7-1.6-.9-.4-1.5-.7-2-.9-.5-.1-1-.2-1.4-.3-.4 0-.7-.1-.8 0s-.2 0-.3.1c-.3.8-.6 1.7-.7 2.5-.1.8-.2 1.5-.1 2.2.1.7.1 1.1.2 1.4.1.3.2.7.3 1-1.8 2-2.7 4.2-2.7 7.2 0 1.3.1 2.8.4 4.1zm6-4.7c.4-.4.9-.7 1.5-.9s1.2-.3 1.9-.3h2.1c.7 0 1.5.1 2.4.2 1 .1 1.8.1 2.5.1s1.5 0 2.5-.1 1.8-.1 2.5-.2h2.1c.7 0 1.4.1 1.9.3.6.2 1.1.5 1.5.9 1.4 1.3 2.2 2.8 2.2 4.4-.1 1-.2 1.9-.5 2.6-.2.7-.5 1.3-.9 1.8s-.9.9-1.5 1.3c-.7.3-1.3.6-1.9.8-.6.2-1.4.3-2.4.4-1 .1-1.8.2-2.6.2h-5.8c-.8 0-1.6-.1-2.6-.2s-1.8-.3-2.4-.4c-.6-.2-1.3-.5-1.9-.8-.7-.3-1.2-.8-1.5-1.3-.4-.5-.7-1.2-.9-1.9-.2-.7-.4-1.3-.4-2.6s.7-3 2.2-4.3z"/><ellipse cx="149.1" cy="29" rx="2.1" ry="3.2"/><ellipse cx="161.8" cy="29" rx="2.1" ry="3.2"/><path d="M277.8 112.9c.4-.4.601-1 .7-1.7.2-.6.1-1.4-.2-2.2s-.7-1.5-1.2-2.1l-1.699-1.7c-.601-.6-1.198-1-2.101-1.2-.8-.3-1.6-.4-2.3-.3-.7.1-1.3.3-1.7.7l-15.5 15.5-2.6 11.1 11.1-2.6 15.5-15.5zm-4.5 2.5l-9.1 9.1c-.3-.4-.601-.9-.8-1.5-.2-.6-.301-1.2-.301-1.7s0-1 .101-1.4l8.899-8.9.198.2c.5.5.9 1.2 1 2 .303.9.203 1.6.003 2.2zm-3.3-9.5c.4-.5 1.1-.6 2.1-.5s1.801.5 2.4 1.1l1.3 1.3c.601.6 1 1.4 1.101 2.4.102 1 0 1.7-.5 2.2l-1.198 1.3c-.2-1.3-.7-2.4-1.5-3.3l-1.7-1.7c-.8-.8-1.898-1.3-3.3-1.5l1.297-1.3zm-3.5 3.4c.4-.4 1.1-.6 2.1-.5 1 .1 1.801.5 2.4 1.1l.2.2-8.9 8.9c-.399.1-.8.1-1.399.1-.5 0-1.101-.1-1.698-.3-.603-.2-1.103-.5-1.5-.8l8.797-8.7zm-8.9 18.5c-.3-.8-.699-1.5-1.199-2s-1.101-.9-2-1.2l.802-4.1 1.5-1.5c.6.5 1.397.9 2.3 1.2.898.3 1.7.5 2.398.5 0 .7.199 1.6.5 2.5.302.9.699 1.7 1.199 2.3l-1.4 1.5-4.1.8zm-39.9-89.9c6.2 0 11-2.1 11-4.6v-2.7h1.9c3 0 5.5-2.5 5.5-5.6s-2.4-5.6-5.5-5.6h-1.9v-2.7c0-2.6-4.8-4.6-11-4.6s-11 2.1-11 4.6v16.6c0 2.6 4.8 4.6 11 4.6zm11-15.1h2.4c.8 0 1.4.3 1.6.6.3.3.7.7.7 1.5 0 .9-.4 1.3-.7 1.6-.3.3-.8.6-1.6.6h-2.4v-4.3zm-17-7.2c1.7-.6 3.8-.9 6-.9s4.3.3 6 .9c1.1.4 1.7.7 2.1 1-.4.3-1 .7-2.1 1-1.7.6-3.8.9-6 .9s-4.3-.3-6-.9c-1.1-.4-1.7-.7-2.1-1 .3-.3 1-.6 2.1-1zm16.5 153.1c2.6 2.399 6.1 3.8 9.6 3.8 4.1 0 8-1.8 10.7-4.8 5.4-5.9 4.9-15-1-20.4-2.6-2.4-6.1-3.7-9.6-3.7-4.1 0-8 1.7-10.7 4.7-2.6 2.9-3.9 6.6-3.7 10.4.2 3.8 1.9 7.4 4.7 10zm18.4-2.8c-2 2.199-4.6 3.5-7.4 3.8 0-.3.1-.7.1-1l.4.1c.4.101.7-.2.8-.5v-.1c.1-.3 0-.5-.2-.7-.1-.1-.2-.1-.3-.2l-.4-.1c.2-.601.4-1.2.7-1.7l.3.2c.3.2.7 0 .9-.3v-.1c.1-.3.1-.6-.1-.8l-.1-.1-.3-.2c.3-.5.7-1 1.1-1.5l.3.2c.3.199.7.199 1-.103l.1-.1c.2-.302.2-.7-.1-1l-.3-.302c.4-.398.9-.801 1.4-1.198l.2.3.1.102c.2.198.6.198.9.101h.1c.3-.2.4-.6.2-.9l-.2-.3c.5-.3 1.1-.6 1.7-.8l.1.3c0 .1.1.2.2.3.2.2.5.2.7.1h.1c.4-.1.6-.5.4-.9l-.1-.3c.2-.1.5-.1.8-.2 0 2.8-1 5.7-3.1 7.9zm-9.3-14.3l-.1-.1-.3-.2c.3-.6.6-1.3.8-2l.4.1c.2 0 .3 0 .5-.1s.3-.3.4-.5v-.1c.1-.3 0-.6-.2-.8-.1-.1-.2-.1-.3-.2l-.4-.1c.1-.4.1-.7.2-1.1 2.8 0 5.5 1 7.7 3s3.5 4.6 3.8 7.4c-.4.1-.7.2-1.1.3l-.1-.4c0-.1-.1-.2-.2-.3-.2-.2-.5-.2-.8-.1h-.1c-.2.1-.4.2-.5.4-.1.2-.1.3 0 .5l.1.4c-.7.3-1.3.6-1.9.9l-.2-.3-.1-.1c-.2-.2-.6-.2-.9 0l-.1.1c-.2.1-.3.3-.3.5s0 .4.1.5l.2.3c-.6.4-1.1.9-1.6 1.4l-.3-.3c-.3-.2-.7-.2-1 .1l-.1.101c-.3.302-.3.802 0 1l.3.302c-.4.5-.8 1.1-1.2 1.698l-.3-.198c-.1-.103-.3-.103-.5-.103-.2.103-.4.2-.5.4v.1c-.2 0-.2.301 0 .603l.1.1.3.2c-.3.602-.5 1.3-.7 2l-.4-.103c-.2 0-.3 0-.5.101s-.3.3-.4.5v.101c-.1.301 0 .602.2.801.1.101.2.101.3.199l.4.102c-.1.398-.1.898-.2 1.398-2.8 0-5.7-1-7.9-3-2.3-2-3.5-4.801-3.8-7.601.4-.1.9-.2 1.3-.3l.1.4c0 .1.1.2.2.3.2.2.5.2.8.1h.1c.2-.1.4-.2.5-.4.1-.2.1-.3 0-.5l-.1-.3c.7-.3 1.3-.6 1.9-.9l.2.3.1.1c.2.2.6.2.9 0l.1-.1c.2-.1.3-.3.3-.5s0-.4-.1-.5l-.2-.3c.6-.4 1.1-.9 1.6-1.4l.3.3c.3.2.7.2 1-.1l.1-.1c.3-.3.3-.8 0-1 0 0-.1-.1-.3-.2.4-.5.8-1.1 1.2-1.7l.3.2c.1.1.3.1.5.1.2-.1.4-.2.5-.4v-.1c.2-.301.1-.701-.1-.901zm-8.1-1.5c2-2.2 4.7-3.5 7.5-3.8 0 .3-.1.5-.1.8l-.4-.1c-.4-.1-.7.2-.8.5v.1c-.1.3 0 .5.2.7.1.1.2.1.3.2l.4.1c-.2.6-.4 1.2-.7 1.7l-.3-.2c-.3-.2-.7 0-.9.3v.1c-.1.3-.1.6.1.8l.1.1.3.2c-.3.5-.7 1-1.1 1.5-.2-.1-.3-.2-.3-.2-.3-.2-.7-.2-1 .1v.1c-.2.3-.2.7 0 1l.3.2c-.4.4-.9.8-1.4 1.2l-.2-.3-.1-.1c-.2-.2-.6-.2-.9-.1h-.1c-.3.2-.4.6-.2.9l.2.3c-.5.3-1.1.6-1.7.8l-.1-.3c0-.1-.1-.2-.2-.3-.2-.2-.5-.2-.7-.1h-.1c-.4.1-.6.5-.4.9l.1.3c-.3.1-.7.2-1 .2.2-2.6 1.2-5.4 3.2-7.6zm-69.9 101.1c1.1-4.9.4-10.3-1.7-15.2-4.9-2.1-10.3-2.8-15.2-1.8-4.7.899-8.9 3.3-12.4 6.7-3.4 3.397-5.7 7.699-6.6 12.397-1 4.9-.3 10.302 1.8 15.2 4.7 2.102 10.3 2.8 15.2 1.8 4.7-.897 8.9-3.198 12.3-6.698 3.4-3.399 5.7-7.699 6.6-12.399zm-11.5-15.3l9.9 9.897c0 2.103-.3 4.2-.8 6.2l-15.3-15.3c2-.497 4.1-.797 6.2-.797zM135 268.5l-9.9-9.9c0-2.1.2-4.199.8-6.199l15.3 15.302c-2 .497-4.1.797-6.2.797zm11-17.8c.1.1.1.399 0 .5l-.4.399c-.1.101-.4.101-.5 0l-1.1-1.102-1.7 1.7 1.1 1.1c.1.103.1.4 0 .5l-.4.4c-.1.1-.4.1-.5 0l-1.1-1.103-1.7 1.7 1.1 1.101c.1.102.1.399 0 .5l-.4.399c-.1.101-.4.101-.5 0l-1.1-1.101-1.7 1.701-.9-.9 1.7-1.7-1.1-1.101c-.1-.101-.1-.399 0-.5l.4-.399c.1-.101.4-.101.5 0l1.1 1.101 1.7-1.699-1.1-1.102c-.1-.1-.1-.398 0-.5l.4-.398c.1-.102.4-.102.5 0l1.1 1.101 1.7-1.698-1.1-1.102c-.1-.102-.1-.398 0-.5l.4-.398c.1-.102.4-.102.5 0l1.1 1.101 1.7-1.7.9.9-1.7 1.699 1.1 1.101zm-45.4-45.9c-.5-.399-1.1-.5-1.7-.3.7 1 .4 3.6 2 3-.5-1-.4-1.8-.3-2.7zm-8.5-2.9c-.2 0-.3-.103-.5-.103 0 1 .6 3.603 1.9 3.9.2.1.5.1.7 0-1.1-1.497-.7-3.297-2.1-3.797zm-4.5-1.6c.3 1.3.7 4.101 2.1 4.4.2.1.5.1.8 0-.6-1.2-1.3-2.5-1.3-3.7-.5-.2-1.1-.3-1.6-.7zm-3.5-1.2c-.5.801.3 4.4 2.1 4.9h.7c-.3-1.3-1.7-4.4-2.8-4.9z"/><path d="M119.4 204.8l-.1-.1c-.4-.3-.8-.4-1.2-.4-.5 0-.9.2-1.3.3-.1.103-.3.2-.4.2-1 .2-2.1.3-3.2.3-1.8 0-3.6-.3-5.4-.6-1.7-.4-3.4-.8-4.9-1.2-8.8-2.399-17.1-5.7-25.9-9.3-2.4-.9-4.9-1.9-7.3-2.9-4.5-1.699-8.7-3.3-13.2-4.897-3-1-6-2.103-9.1-3.302-4.6-1.801-11-4-16.7-5.698-.4-.2-.9-.4-1.5-.603-1.3-.5-2.7-1.1-4-1.1-.8 0-1.4.2-1.9.6-2.3 2-7.2 10.301-4.6 14.103.9 1.198 3 1.8 5.1 2.397.3.103.7.2 1 .301 12 3.5 24 5.899 35.6 8.302 9.2 1.897 18.6 3.8 28 6.198 1 .199 2 .399 2.9.602.9.2 1.9.3 2.9.602h.1c5.3 1.398 11.8 3.198 16.4 6.398.6.3 1 .8 1.5 1.3.7.802 1.4 1.5 2.4 1.9l.4.198.4-.198c5.2-3.5 6.7-8.5 4.1-13.302l-.1-.101zm-4.6 10.7c-3.7-3.7-8.2-5.8-12.9-7.3-1.5-.5-3.1-1-4.7-1.4l-.013-.003c.194-.002.438-.01.612-.097-.9-1.5-.7-3.101-2-3.601-.1 0-.3-.102-.4-.102-.097.968.375 3.318 1.583 3.745-1.127-.281-2.255-.562-3.382-.847-.4-.101-.8-.198-1.2-.301-.9-.199-1.8-.5-2.7-.699-1.2-.198-2.3-.5-3.4-.801h-.1c-5.7-1.397-11.5-2.8-17.2-4-7.9-1.6-15.6-3.6-23.4-5.6-7.7-2-15.7-3.4-23.2-6.4.3-3.6 1.2-7.1 2.6-10.5C44.9 183.2 64.3 191.2 83.8 198.7c-.9 1.3-1.6 2.6-1.4 4.1.9-1.3.8-2.7 1.7-4 .1 0 .2.101.3.101 1.1.399 2.3.802 3.5 1.199 1.5.5 3 1.103 4.5 1.603 1.2.5 2.4.897 3.6 1.3 2.2.8 4.4 1.5 6.6 2.102-.6.898-1.5 2.398-.6 3.101 1-1 .8-2.101 1.4-3.101 4.8.898 9.5 2.5 15 .5.5 1.198-1.1 1.698-1.9 1.898-3.1.898-7.9-.8-10.3-.7 3.8 1.302 7.6 2.7 11.9 1.302-.9 2.495-1.6 4.995-3.3 7.395zm1.1-.5c1.4-2.4 2.1-5.7 2.9-7.7.1 2.7-.5 6-2.9 7.7z"/><path d="M39.6 183.2c-4.8-1.7-9.3-3.601-14.2-4.4-.3.101-.5.3-.7.4.6 1.2 2.2 1 3.2 1.3 12.4 3.6 25.3 8.5 37.7 13.2 4.6 1.7 9 3.7 13.8 4.7-4.3-2-8.8-3.7-13.2-5.5-8.8-3.4-17.7-6.4-26.6-9.7zM383.4 297c0-.1 0-.3-.2-.3h-2c-.103 0-.2.1-.2.3l-.7 3.3-.7 3.4c0 .1-.1.3-.197.3H377.8c-1.397 0-1.2-1.1-1-2.4v-.3l.103-.3.1-.4c0-.1.1-.3.1-.397l.303-1.603.3-1.6c0-.1 0-.3-.2-.3h-2.1c-.103 0-.2.1-.2.3l-.4 2.1-.406 2.1v.2c-.5 2.3-.4 4.6 2.397 4.699l.103.101h4.397c.103 0 .2-.101.2-.2l.9-4.4.3-1.5.703-3.1zm-25.6 5.9l-.3 1.6.3-1.4v-.2zm.4-1.6l-.3 1.4v.1zm3.4-4.5h-2.1c-.1 0-.2.101-.2.2l-.2.9-.197.8c0 .1 0 .1.197.1h2.2c.103 0 .2 0 .2-.1l.1-.9.103-.899c-.003-.001-.003-.101-.103-.101z"/><path d="M358.8 299.8c-.1 0-.2.101-.2.2l-.3 1.4-.3 1.4c0 .101-.1.3-.1.4l-.3 1.4-.3 1.4c0 .1-.1.3-.1.4 0 0-.4 1.199-1.103 1.199h-.697c-.103 0-.2.101-.2.198l-.2 1-.2 1c0 .103 0 .2.2.2h1.8c1.7 0 2.7-1 3.3-3.8l.7-3.2.603-3c-.2-.2-.303-.2-.4-.2l-2.203.003zm43.2-.8l-.1-.4-.1-.4v-.2c-.2-.7-.7-1.1-1.897-1.1l-1.803-.1-1.697-.1H394.6c-.1 0-.3.2-.3.3l-.1.4-.103.5v.1l-.8 3.9-.8 3.699v.301c0 .074.061.135.13.168a.43.43 0 00.271.132h1.697c.103 0 .303-.101.303-.101l.1-.102.1-.102v-.195l.303-1.5.3-1.5V302.401l.3-1.601.3-1.5c0-.1.103-.2.2-.2l5.3.103c.099-.003.199-.103.199-.203z"/><path d="M409.5 295.5h-2.903c-.1 0-.3.1-.3.2l-3.7 5.5c-.1.1-.1.1-.197 0l-.3-1.2c0-.1-.1-.2-.197-.2h-2.4c-.1 0-.2.101-.1.2l1.1 3.8v.4L400 306c0 .1 0 .2.2.2h2.397c.103 0 .2-.101.303-.2l.5-1.8c0-.101.1-.3.197-.4l6.103-8.1c-.1-.1-.1-.2-.2-.2zm-20.8 1.3c-3.9-.1-4.8 2.3-5.3 4.7s-.4 4.7 3.6 4.7h3.506c.102 0 .2-.101.2-.2l.2-.8.1.8.2-.8v-.3l.2-.801v-.102c0-.102-.103-.2-.2-.2v.2H387.6c-1.3 0-1.8-.398-1.697-1.398 0-.102.1-.302.197-.302h5.603c.1 0 .2 0 .2-.1.897-3.297.697-5.397-3.203-5.397zm.8 3.9h-3c-.1 0-.2-.2-.1-.2v-.1c.3-.801.897-1.301 2-1.301 1.197-.102 1.3.5 1.3 1.198-.1.103-.1.403-.2.403zm-20.9-6.3c-4 0-5.697 2.8-6.3 5.897-.7 3.103.2 5.9 4.103 5.802h6c.1 0 .197-.102.3-.199l.5-1.9c0-.1 0-.2-.2-.2H372c-.1 0-.1-.1-.1-.1s1.1-2.7 1.3-4.2c.4-2.1-.6-5.1-4.6-5.1zm1.8 5.8l-.103.2-.397 1.6-.4 1.5c0 .1-.1.1-.3.1h-2.3c-1.803 0-2.2-1.3-1.803-3.397.4-2.103 1.303-3.302 3-3.5 2.303-.103 2.803 1.597 2.303 3.497zm-23.1 5.6c-.1 0-.2 0-.2-.1h-.1c-.1 0-.2 0-.2-.101-.1 0-.1 0-.2-.102h-.1c-.1 0-.1-.102-.2-.102s-.1-.101-.2-.101h-.1s-.1 0-.1-.101c0 0-.103 0-.103-.102-.101 0-.101-.1-.2-.1h-.1c-.102 0-.2-.102-.2-.102h-.101c-.102 0-.102-.101-.199-.101h-.102c-.101 0-.101-.101-.199-.101l-.102-.102-.1-.1h-.102c-.101 0-.101-.102-.2-.102l-.198-.201h-.102l-.101-.1-.103-.1-.197-.201c-.101-.1-.102-.1-.2-.199l-.103-.1v-.101c0-.103-.1-.103-.1-.2-1.199-1.602-1.6-3.9-.699-5.8l-.898 1.101c-1.102 1.6-1 3.6-.102 5.299 0 0 0 .102.102.102v.202l.1.102v.101l.101.101v.102c0 .1.102.1.102.197 0 .103.101.103.101.201v.102l.102.1v.102l.199.201.199.197v.102l.102.101h.1l.2.2c.101 0 .101.1.2.1l.1.102.102.101.101.103.102.1h.101l.1.1h.102c.101 0 .101.103.201.103h.1c.1 0 .1.1.199.1h.101s.103 0 .103.103c.1 0 .1.1.197.1.103 0 .103.1.2.1h.103c.1 0 .1.103.197.103.103 0 .2.1.2.1h.103c.1 0 .197.103.197.103 5.303 1 6.803-3.2 6.803-3.2-.709 1.588-3.009 2.088-5.109 1.588z"/><path d="M349.1 302.4c-.1 0-.197 0-.197-.103h-.103c-.1 0-.1 0-.2-.1h-.1c-.1 0-.1 0-.2-.103-.1 0-.1-.1-.2-.1 0 0-.1 0-.1-.1h-.1l-.1-.094c-.1 0-.1-.1-.2-.1 0 0-.1 0-.1-.101-.1-.102-.1-.102-.2-.199-.8-.603-1.397-1.4-1.7-2.4-.3-1-.197-2.1.303-3l-.603.9c-.8 1.1-.7 2.699-.101 3.897.101.2.201.397.301.603.1.199.199.397.4.5l.197.199.2.198.2.2c.097.097.1.102.199.2 0 0 .101 0 .101.1.103 0 .103.103.2.103l.1.1h.103s.1 0 .1.1c.103 0 .103.103.2.103s.1 0 .2.1h.1c.103 0 .103 0 .2.103h.1c.103 0 .2.1.2.1 4.103.7 5-2.5 5-2.5-.8 1.294-2.5 1.894-4.2 1.394z"/><path d="M347.9 296.1c-.5.7-.5 1.5-.2 2.301.397.802 1.1 1.399 2 1.699h.203c2.3.4 2.897-1.199 3-1.397-.5.8-1.4 1-2.5.698-.103 0-.2-.101-.303-.101-.1 0-.197-.1-.3-.1-.2-.101-.397-.2-.6-.3-1-.7-1.603-2.2-1-3.301l-.3.501zM203.6 90h61.9c2.1 0 3.9-1.7 3.9-3.9V57.7c-.103-2.1-1.801-3.9-3.9-3.9h-61.9c-2.1 0-3.9 1.7-3.9 3.9v28.4c0 2.1 1.7 3.9 3.9 3.9zm-1.7-32.3c0-.9.8-1.7 1.7-1.7h61.9c.9 0 1.7.8 1.7 1.7v28.4c0 .9-.8 1.7-1.7 1.7h-61.9c-.9 0-1.7-.8-1.7-1.7V57.7z"/><path d="M223 79c.5 0 1-.5 1-1v-2c0-.5-.5-1-1-1h-3c-.5 0-1 .5-1 1v2c0 .5.5 1 1 1h3zm2-1c0 .5.5 1 1 1h3c.5 0 1-.5 1-1v-2c0-.5-.5-1-1-1h-3c-.5 0-1 .5-1 1v2zm10 1c.5 0 1-.5 1-1v-2c0-.5-.5-1-1-1h-2c-.5 0-1 .5-1 1v2c0 .5.5 1 1 1h2zm7 0c.5 0 1-.5 1-1v-2c0-.5-.5-1-1-1h-2c-.5 0-1 .5-1 1v2c0 .5.5 1 1 1h2zm8-1v-2c0-.5-.5-1-1-1h-3c-.5 0-1 .5-1 1v2c0 .5.5 1 1 1h3c.5 0 1-.5 1-1zm13-3h-9c-.5 0-1 .5-1 1v2c0 .5.5 1 1 1h9c.5 0 1-.5 1-1v-2c0-.5-.5-1-1-1zm-57 4h10c.5 0 1-.5 1-1v-2c0-.5-.5-1-1-1h-10c-.5 0-1 .5-1 1v2c0 .5.5 1 1 1zm9-10v3c0 .5.5 1 1 1h3c.5 0 1-.5 1-1v-3c0-.5-.5-1-1-1h-3c-.5 0-1 .5-1 1zm9 4c.5 0 1-.5 1-1v-3c0-.5-.5-1-1-1h-1c-.5 0-1 .5-1 1v3c0 .5.5 1 1 1h1zm4-4v3c0 .5.5 1 1 1h3c.5 0 1-.5 1-1v-3c0-.5-.5-1-1-1h-3c-.5 0-1 .5-1 1zm6 0v3c0 .5.5 1 1 1h3c.5 0 1-.5 1-1v-3c0-.5-.5-1-1-1h-3c-.5 0-1 .5-1 1zm8 0v3c0 .5.5 1 1 1h2c.5 0 1-.5 1-1v-3c0-.5-.5-1-1-1h-2c-.5 0-1 .5-1 1zm6 0v3c0 .5.5 1 1 1h3c.5 0 1-.5 1-1v-3c0-.5-.5-1-1-1h-3c-.5 0-1 .5-1 1zm15-1h-7c-.5 0-1 .5-1 1v3c0 .5.5 1 1 1h7c.5 0 1-.5 1-1v-3c0-.5-.5-1-1-1zm-57 5h6c.5 0 1-.5 1-1v-3c0-.5-.5-1-1-1h-6c-.5 0-1 .5-1 1v3c0 .5.5 1 1 1zm8-7h3c.5 0 1-.5 1-1v-2c0-.5-.5-1-1-1h-3c-.5 0-1 .5-1 1v2c0 .5.5 1 1 1zm7 0h3c.5 0 1-.5 1-1v-2c0-.5-.5-1-1-1h-3c-.5 0-1 .5-1 1v2c0 .5.5 1 1 1zm6 0h3c.5 0 1-.5 1-1v-2c0-.5-.5-1-1-1h-3c-.5 0-1 .5-1 1v2c0 .5.5 1 1 1zm7 0h2c.5 0 1-.5 1-1v-2c0-.5-.5-1-1-1h-2c-.5 0-1 .5-1 1v2c0 .5.5 1 1 1zm6 0h3c.5 0 1-.5 1-1v-2c0-.5-.5-1-1-1h-3c-.5 0-1 .5-1 1v2c0 .5.5 1 1 1zm8 0h2c.5 0 1-.5 1-1v-2c0-.5-.5-1-1-1h-2c-.5 0-1 .5-1 1v2c0 .5.5 1 1 1zm6 0h3c.5 0 1-.5 1-1v-2c0-.5-.5-1-1-1h-3c-.5 0-1 .5-1 1v2c0 .5.5 1 1 1zm7 0h2c.5 0 1-.5 1-1v-2c0-.5-.5-1-1-1h-2c-.5 0-1 .5-1 1v2c0 .5.5 1 1 1zm-55 0h4c.5 0 1-.5 1-1v-2c0-.5-.5-1-1-1h-4c-.5 0-1 .5-1 1v2c0 .5.5 1 1 1zm11 15h-4c-.5 0-1 .5-1 1v3c0 .5.5 1 1 1h4c.5 0 1-.5 1-1v-3c0-.5-.5-1-1-1zm-11 5h2c.5 0 1-.5 1-1v-3c0-.5-.5-1-1-1h-2c-.5 0-1 .5-1 1v3c0 .5.5 1 1 1zm38-5h-23c-.5 0-1 .5-1 1v3c0 .5.5 1 1 1h23c.5 0 1-.5 1-1v-3c0-.5-.5-1-1-1zm9 0h-5c-.5 0-1 .5-1 1v3c0 .5.5 1 1 1h5c.5 0 1-.5 1-1v-3c0-.5-.5-1-1-1zm9.7 2.5c-.601 0-1 .4-1 1s.5 1 1 1c.6 0 1-.5 1-1s-.4-.9-1-1zm-2.9 0c-.6 0-1 .4-1 1s.5 1 1 1c.601 0 1-.5 1-1s-.5-.9-1-1zm0-2.9c-.6 0-1 .4-1 1s.5 1 1 1c.601 0 1-.5 1-1s-.5-1-1-1zm-3 2.9c-.6 0-1 .4-1 1s.5 1 1 1c.601 0 1-.5 1-1s-.4-.9-1-1zM39.5 112.4H22.8c-2 0-3.7 1.7-3.7 3.7v40.8c0 2 1.7 3.7 3.7 3.7h16.7c2 0 3.7-1.7 3.7-3.7V116c0-2-1.7-3.6-3.7-3.6zm0 46.4H23.2c-1.3 0-2.4-1.1-2.4-2.4v-40.3c0-1.3 1.1-2.4 2.4-2.4h16.2c1.3 0 2.4 1.1 2.4 2.4v40.3h.1c0 1.3-1.1 2.4-2.4 2.4z"/><path d="M22.1 120.5h18.1v31.8H22.1zm6.8-2.1h4.5c.2 0 .4-.2.4-.4s-.2-.4-.4-.4h-4.5c-.2 0-.4.2-.4.4.1.1.2.4.4.4zm2.3 35c-1.2 0-2.3 1-2.3 2.3 0 1.3 1 2.3 2.3 2.3 1.3 0 2.3-1 2.3-2.3 0-1.3-1.1-2.3-2.3-2.3zm169.6 143c-.2-2-.4-4.2-1.4-6-1.1-1.9-4.3-5.301-6.8-6.9-2.6-1.7-5.6-2.7-9.1-3.1-.5-.5-1.3-.801-2.4-.801-.9 0-1.6.198-2.1.601-.8 0-1.5.1-1.9.1-1.3.101-3.2.4-4.9 1-2.7 1-5.5 2.7-7.6 4.9-.6.6-1.1 1.2-1.4 1.8-1.3 2.3-2.1 4.1-2.5 6.2-.3 1.2-.4 2.7-.5 4.1-.1 1-.1 1.9-.2 2.4-.1.399-.2.7-.2 1.1-.1.4-.1.7-.2.9-1.3.6-4.4 2.399-5.3 2.899l-.1.101c-1.7 1.2-3.1 2.2-3.3 3.399-.3 1.398.6 2.801 2.4 3.5 1 .398 5.1 1.301 12.3 2.601 2.8.5 11.1 1.8 14.1 1.8h.5c2.5-.1 6.1-.7 7.9-1.6 1.6-.7 5.6-3.301 6.5-4.103.2-.1.3-.3.4-.397.4-.301.7-.7.9-1.103 1.6-.397 2.9-1 3.6-1.6.8-.7 1.3-2.103 1.4-2.9.3-2.3.3-4.897 0-7.897 0-.3-.1-.6-.1-1zm-1.4 9c-.1.6-.5 1.5-.8 1.8-.5.1-1.5.6-3.1 1-.9.2-2.2.2-3.4.2h-3c-.9 0-2.1.1-3.4.1-1.6 0-4.7 0-7.1-.2-3.1-.3-8.1-1-11.6-1.8-3.2-.8-5.7-2.3-6-2.7-.1-.399.1-1 .3-1.7.1-.3.2-.699.2-1.1.1-.6.2-1.5.3-2.6.1-1.301.2-2.7.4-3.801.4-1.899 1.1-3.602 2.3-5.699.3-.5.6-.9 1.2-1.4 2-2 4.6-3.6 7-4.5 1.5-.5 3.3-.8 4.5-.9.5-.1 1.3-.1 2.3-.1.3.2.8.2 1.6.2.6 0 1 0 1.3-.101 2.8.301 6.2 1 9.3 3 2.2 1.398 5.3 4.698 6.3 6.398.9 1.5 1.1 3.5 1.2 5.3 0 .302.1.7.1 1 .3 2.903.3 5.403.1 7.603z"/><path d="M179.2 291.8c-.1-.899-.6-1.8-1.5-2.3-.3-.2-.7-.4-1.3-.4h-.4c-.7 0-1.2.2-1.7.4-.2-.3-.6-.8-1.3-.8h-.1c-.8 0-1.4.5-1.5 1.3l-.1.4.4.1c.5.1.8.2.8.5 0 .1 0 .3-.1.5 0 .1 0 .2-.1.3l-.1.9c0 .2-.1.5-.1.7-.1.397-.1.8-.2 1 0 .1-.3.199-.4.199-.2.101-.3.101-.5.301l-.3.3.3.3.3.3c.1.101.4.3.4.4 0 .399-.2 1.2-.3 1.899-.1.301-.1.698-.2.898 0 .102 0 .3-.1.398 0 .199 0 .399-.1.5 0 .102-.3.199-.5.199h-.3l-.4-.1-.1.4c-.1.397 0 .799.3 1.1.3.4.8.6 1.4.6h.1c.4 0 .8-.1 1.1-.3.5.3 1 .601 1.6.7.4.1.7.199 1.1.199 1.1 0 2.1-.5 2.6-1.299.2-.201.3-.5.4-.802.2-.5.4-.899.7-1l.5-.101-.2-.5c-.1-.2-.2-.301-.2-.399-.1-.101-.1-.101-.1-.198-.1-.201-.2-.603-.2-.9 0-.2 0-.301-.1-.5-.1-.4-.2-.801-.4-1.2l.1-.101s.1-.299.3-.601c.1-.301.2-.5.4-.698 0 0 .1-.103.2-.103.1-.101.2-.101.4-.3l.3-.399-.4-.301c-.4-.191-.4-.991-.4-1.491zm-3.2 7.5l.1.101c0 .102.3.699 0 1.102-.1.2-.5.398-1.1.398s-1.2-.198-1.5-.5c-.2-.101-.3-.398-.3-.5 0-.198.1-.601.1-.898 0-.2.1-.398.1-.5l.1-.898c0-.199.1-.5.1-.602.2-.3.7-.398 1.1-.398h.2c.9.101 1.4.601 1.5 1.101.1.3 0 .5-.3.8h-.1c-.1.1-.2.1-.3.301.2.193.2.393.3.493zm1.1-6.2c-.1.103-.1.103-.2.2l-.2.2.1.1c.1.301.2.4.2.603-.1.601-.7.897-1.2.897h-.2c-.6-.1-1.1-.397-1.3-.6-.1-.2 0-.6 0-1 0-.2 0-.3.1-.5 0-.4.1-.8.2-1 .2-.4.7-.6 1.2-.6h.1c.8.1 1.2.5 1.3.8.1.2.2.399.2.6 0 .1-.1.2-.3.3zM40.2 66.7c-.5-.8-1-1.9-.9-3.2 0-.7.4-1.3.4-1.9-.5-.4-1.9-.5-2.3-.1-.4.3-.3 1.1-.5 1.6-.5 1.5-1.8 3.2-2.3 4.3-.8-1-.7-3.3-.1-4.5-.4-.7-1.7-.4-2.4-.2C30.9 66 29.5 69 28 72c-.2-2 .8-3.5.9-5.2-.2-.5-1-.6-1.3-.4.2-1 0-2-.6-2.3-1.6-.7-3.5 1.7-4.1 2.3-1.2.7-2.5 1.4-3.7 2.1-.9-.8-1.9-1.6-2.9-2.4-1-.8-2.1-1.6-2.7-2.6-.4-.7-.7-1.5-.6-2.6.3-2.7 3.1-4.8 5.5-6.2 1.3-.8 2.6-1.4 3.9-1.9 1.3-.5 2.9-1.1 4.6-1.2 3.1-.3 6 .4 5.4 3.4-.7 3.3-5.1 6-9.1 6.3-1.1 0-2-.1-2.8-.4-.6-.3-.8-.8-1.5-1-.1 1.1.6 1.6 1.2 2 .8.6 2.1.8 3.2.8 2.9 0 6.3-1.2 8.4-3.1 1.5-1.4 2.8-3.5 2.8-5.6.1-3.2-2.6-4.5-5.6-4.9h-2.7c-3.5.4-7.2 2.1-9.9 3.9-2.8 1.7-5.6 4.3-6.4 7.4v1.3c1.2 3.8 4.8 5.3 7.6 7.5-2 1.3-6.4 3.1-6.4 6.6 0 1.4.9 2.5 2.1 2.7H15c3.7-.5 6.6-4.7 4.9-8.9.6-.5 1.5-.8 2.1-1.3-.1.8-.5 2.2-.4 3.5.1 1.3.7 2.8 1.5 3.1 2 .7 2.5-2.1 3.1-3.2.2 1.2 0 2.7 1.1 2.8.5 0 1.2-.5 1.5-1 .3-.5.7-1.2 1-1.8.7-1.4 1.5-3 2.2-4.6.1-.3.1-.7.4-.9.1 1.2.6 2.2 1.1 3.1-.7.9-1.5 1.8-2.3 2.9-.2.4-.6.7-.6 1.1.1.8 1.6.7 2.5.4 1.3-.5 2.8-1.5 2.6-3.6 0-.5-.2-.8-.4-1.4.7-.9 1.3-1.9 1.8-2.9.2-.3.3-.7.6-.9.1 1.1.5 2.1 1 2.9-.6.6-1.3 1.1-1.8 2-.4.7-1 2.6.1 2.8 1.2.2 3.5-1.3 3.9-2.6.2-.8 0-1.4-.2-2.2 2.2-.9 5.8-.5 7.1 1.1.4.5.8 1.3.6 2.1-.2.8-1 .9-1.4 1.7 1.2.1 1.8-1 2.2-1.9v-1.3c-.8-3.5-5.7-4.5-9-2.8zm-23 8.3c-.8.8-2.1 1.6-3.3 1-.5-1.1 0-2.3.6-3 1-1.2 2.7-2.1 3.8-2.8.1 0 .1-.1.2-.1s.1.1.1.1c.4 1.9-.3 3.7-1.4 4.8zm8.3-5.6c-.2.6-.5 1.1-.7 1.7-.2.5-.4 1.1-.9 1.4-.3-.1-.4-.4-.4-.7-.4-2.2 1.1-6.1 2.9-6.2.1 1.3-.4 2.6-.9 3.8zm6.6 3.1c.5-.7 1.2-1.3 1.7-2.1.1 1-.8 1.8-1.7 2.1zm5.5-1.2c.1-1.3.8-2 1.4-2.6.5 1.3-.4 2.4-1.4 2.6zm429.2 211.5c-.397-.7-.8-1.399-1.2-2.1-.197-.3-.697-.2-1-.2-.3 0-1-.1-1.197.2-1 1.7-2 3.3-3 5-.2.3-.4.7-.603 1-.1.3-.397.7.103.7h1.5c.197 0 .5.1.6 0 .1-.103.2-.301.3-.5.103 0 .2-.4.3-.4h3.4c.1 0 .3.4.3.5.103.1.2.4.4.4.6 0 1.3 0 2-.103.6 0 .397-.397.2-.698-.703-1.299-1.403-2.499-2.103-3.799zm-3.4 2.1c.3-.5.5-1.103.8-1.603.3.5.6 1.103.897 1.603H463.4zm-9.8-.3c-.1-.1-.1-.199-.197-.3 0 .101.697-.5.697-.6.303-.5.4-1 .2-1.601-.1-.602-.6-1.102-1.1-1.302-.603-.3-1.2-.198-1.8-.198h-3.2c-.3 0-1.103-.102-1.3.198-.103.2 0 .5 0 .7v5.7c0 .397.6.3.897.3.4 0 1 .102 1.4 0 .397-.102.3-.7.3-1v-1.398c.4 0 1.1-.102 1.5.101.2.1.2.3.3.5.3.6.603 1.1 1 1.7.103.199.3.199.5.199h1.103c.197-.199 1.5 0 1.197-.602L453.6 284.6zm-2.8-1.1h-1.297v-1.2c0-.2.5-.1.6-.1.5 0 1.603-.2 1.803.5.194.6-.606.8-1.106.8z"/><path d="M462.3 281.3c.103-.2.2-.3.2-.5-.1-.3-1.1-.2-1.3-.2-.3 0-1-.1-1.2.2-.1.3-.3.601-.5.9l-1.5 2.399c-.6-.899-1.2-1.802-1.8-2.699-.2-.2-.4-.7-.7-.7h-1c-.2 0-.5-.101-.7 0 1.3.5 1.603 2 1.103 3.1.5.7.897 1.4 1.3 2.2.2.301.5.7.7 1.1.197.301.397.301.8.301.3 0 .8.199 1-.198.2-.2.3-.4.397-.603.5-.897 1.103-1.8 1.603-2.699a37.814 37.814 0 001.597-2.601zm-234.606-45.31l32.314 18.473-9.425 5.385-14.995-8.58-10.778 6.086 25.708 14.498 10.589-5.982 12.237-6.91-.006-9.108-32.355-18.454 9.535-5.447 14.656 8.606 10.855-6.13-25.511-14.441-22.831 12.896z"/><path d="M299.85 271.527v-56.766l-38.272-21.845.022-.013-11.599-6.594-50.061 28.451.211.121v56.766l38.405 21.908-.025.016 11.47 6.515 50.06-28.438-.211-.121zm-11.144-6.472l-.013.006-.012-.006-6.074 3.453-32.606 18.473-38.707-21.926v-43.697l.012-.006.012.006 38.722-21.908 38.667 21.908-.001 43.697z"/></g></svg>
