<svg height="1130" width="885" xmlns="http://www.w3.org/2000/svg"><path d="M580.2 458.8q1.8-.3 8.3 5.2 6.5 5.5 20 20t26.7 33.8q13.3 19.2 23.3 40.2 10 21 17 43t11 46.5q4 24.5 4.5 51t-2.5 50q-3 23.5-9 45.5t-15 43q-9 21-20.5 40t-25.2 35.2Q605 928.5 589.5 942t-32 24q-16.5 10.5-36 18.5t-39.5 12q-20 4-37.5 4.5t-28-.5q-10.5-1-30.5-6T347 981q-19-8.5-36.5-20.5t-34-28.5q-16.5-16.5-28-31.5t-22.3-34.3Q215.5 847 207 824.5q-8.5-22.5-13.5-45t-7-45.5q-2-23-.5-50t6-49q4.5-22 12-43.5t19-43.5q11.5-22 25-40t28.5-32.5q15-14.5 17.3-15.3 2.2-.7 5 1 2.7 1.8 20 11 17.2 9.3 39.7 16.8 22.5 7.5 45.5 10.5t44.5 2q21.5-1 40.5-5t37.5-11q18.5-7 35.3-16.7 16.7-9.8 18.4-10z" fill="#fff" fill-rule="evenodd" stroke="#fff" stroke-width=".5"/><path d="M399 3.8L422 0h30l23 3.8q23 3.7 42.5 10.2 19.5 6.5 36.7 15.8Q571.5 39 585 49t25.5 21q12 11 26 29.5T661 139q10.5 21 16.5 41.5t8 35q2 14.5 1.5 41t-5.5 49q-5 22.5-13 42t-19.3 37.3q-11.2 17.7-12 18.4-.7.8-1.2 1.8l-.5 1-.3.2-.2.3.2.3.3.2.3.2.2.3.2.3.3.2 36.5 23q36.5 23 56.2 38.2 19.8 15.3 37.3 31.8 17.5 16.5 31.7 32.8Q812.5 550 831 576q18.5 26 29 44.5t16 32.5q5.5 14 7 21t1.8 7h.2v15h-.5l-.5 2-.5 2-.5 2-.5 2-.5 1q-.5 1-3.8 5.8-3.2 4.7-8.2 8.2-5 3.5-16 4t-25-4q-14-4.5-32-14.5T761.5 682L744 669.5l-.2-.3-.3-.2-.3-.2-.2-.3-1-.5-1-.5-.2-.3-.3-.2-.3-.2-.2-.3-.2-.3-.3-.2-.3-.2-.2-.3-.2-.3-.3-.2-2 32q-2 32-7 57.5T716 805q-8.5 25-20 48t-23.8 40.8q-12.2 17.7-21.7 28.7t-22 23.5q-12.5 12.5-17.3 16.2-4.7 3.8-5 4l-.2.3-.2.3-.3.2-.3.2-.2.3-1 .5-1 .5-.2.3-.3.2-.3.5-.2.5h-.2q-.3 0-5.6 3.8-5.2 3.7-22.4 14-17.3 10.2-37.6 18.7L516 1015l-1.5.2q-1.5.3-3.5.8t-22 4.5q-20 4-51 4t-51-4l-20-4-.2-.3-.3-.2h-.5l-1-.2q-1-.3-7.5-2.3-6.5-2-24.5-10t-37-19.7L277 972l-.2-.5-.3-.5-.3-.2-.2-.3-1-.5-1-.5-.2-.3-.3-.2-.3-.2-.2-.3-.2-.3-.3-.2-.3-.2q-.2-.3-14.2-12-14-11.8-25-24.6-11-12.7-23-29.2t-23.8-37.8Q174.5 843 165 818q-9.5-25-15.5-51.5t-9-60.5l-3-34-.3.2-.2.3-.2.3-.3.2-.3.2-.2.3-1 .5-1 .5-.2.3-.3.2-.3.2-.2.3-.2.3-.3.2-20.7 13.8Q91 703.5 75.5 711 60 718.5 51 721t-20 2q-11-.5-16.5-4t-8.3-7.8Q3.5 707 3 705.5l-.5-1.5-.5-1.5-.5-1.5-.5-2.5-.5-2.5H0v-16h.5l.5-3 .5-3 .5-2q.5-2 5.5-16t17-35q12-21 30-46T87 533q14.5-17 29.5-31t35.7-30.2Q173 455.5 207 434l34-21.5.2-.3.3-.2.3-.2.2-.3.2-.3.3-.2.3-.2.2-.3-.2-.3-.3-.2-.3-.2-.2-.3-.2-.3q-.3-.2-6.3-8.2-6-8-16-25.5t-17-36q-7-18.5-11-38.5t-4.5-44q-.5-24 2.5-44t9-38.5q6-18.5 14.5-35.5t21.5-35q13-18 24.3-29.2 11.2-11.3 27.4-23.6 16.3-12.2 34-21.4Q338 20.5 357 14q19-6.5 42-10.2zm30.5 205.7l7 16.5.5 1 .5 1 .5 1 .5 1 .3.2.2.3h2l.2-.3.3-.2.5-1 .5-1 .5-1 .5-1 .5-2q.5-2 4-11t10.5-20.5q7-11.5 19.5-24t23.8-19.7q11.2-7.3 26.2-12.3 15-5 29-5.5t24.5 1.5q10.5 2 22.5 7t24.5 13.5q12.5 8.5 23.7 20.8 11.3 12.2 15.3 31.7t4.5 40q.5 20.5-.5 30.5t-5.5 29q-4.5 19-12.5 38t-19 36q-11 17-22 29T588 431.5q-13.5 11.5-30.8 21.7-17.2 10.3-35.2 17.3-18 7-37.5 11T443 486q-22 .5-34.5-1t-33-7q-20.5-5.5-36.5-13t-31.5-17.5q-15.5-10-27.7-21.3-12.3-11.2-24-25.4-11.8-14.3-21-30-9.3-15.8-16.3-33.3-7-17.5-11-36t-5-39.5q-1-21 .5-35t6.5-34q5-20 7.5-22.5t14-13q11.5-10.5 23.8-17.3 12.2-6.7 26.2-10.7 14-4 32-4.5t28 1.5q10 2 19.5 6t21 11.7q11.5 7.8 18.7 16.3 7.3 8.5 14.8 20.5 7.5 12 14.5 28.5zm150.7 249.3q1.8-.3 8.3 5.2 6.5 5.5 20 20t26.7 33.8q13.3 19.2 23.3 40.2 10 21 17 43t11 46.5q4 24.5 4.5 51t-2.5 50q-3 23.5-9 45.5t-15 43q-9 21-20.5 40t-25.2 35.2Q605 928.5 589.5 942t-32 24q-16.5 10.5-36 18.5t-39.5 12q-20 4-37.5 4.5t-28-.5q-10.5-1-30.5-6T347 981q-19-8.5-36.5-20.5t-34-28.5q-16.5-16.5-28-31.5t-22.3-34.3Q215.5 847 207 824.5q-8.5-22.5-13.5-45t-7-45.5q-2-23-.5-50t6-49q4.5-22 12-43.5t19-43.5q11.5-22 25-40t28.5-32.5q15-14.5 17.3-15.3 2.2-.7 5 1 2.7 1.8 20 11 17.2 9.3 39.7 16.8 22.5 7.5 45.5 10.5t44.5 2q21.5-1 40.5-5t37.5-11q18.5-7 35.3-16.7 16.7-9.8 18.4-10z" fill="#111011" fill-rule="evenodd" stroke="#111011" stroke-width=".5"/><path d="M475 3.8L452 0h433v681h-.2q-.3 0-1.8-7t-7-21q-5.5-14-16-32.5T831 576q-18.5-26-32.8-42.2-14.2-16.3-31.7-32.8-17.5-16.5-37.3-31.8Q709.5 454 673 431l-36.5-23-.3-.2-.2-.3-.2-.3-.3-.2-.3-.2-.2-.3.2-.3.3-.2.5-1q.5-1 1.2-1.8.8-.7 12-18.4 11.3-17.8 19.3-37.3 8-19.5 13-42t5.5-49q.5-26.5-1.5-41t-8-35q-6-20.5-16.5-41.5t-24.5-39.5q-14-18.5-26-29.5T585 49q-13.5-10-30.8-19.2Q537 20.5 517.5 14 498 7.5 475 3.8zM0 340V0h422l-23 3.8Q376 7.5 357 14q-19 6.5-36.8 15.8-17.7 9.2-34 21.4-16.2 12.3-27.4 23.6Q247.5 86 234.5 104T213 139q-8.5 17-14.5 35.5t-9 38.5q-3 20-2.5 44t4.5 44q4 20 11 38.5t17 36q10 17.5 16 25.5t6.3 8.2l.2.3.2.3.3.2.3.2.2.3-.2.3-.3.2-.3.2-.2.3-.2.3-.3.2-.3.2-.2.3-34 21.5q-34 21.5-54.8 37.8-20.7 16.2-35.7 30.2-15 14-29.5 31t-32.5 42q-18 25-30 46t-17 35q-5 14-5.5 16l-.5 2-.5 3-.5 3H0V340z" fill="#fff" fill-rule="evenodd" stroke="#fff" stroke-width=".5"/><path d="M429.5 209.5l7 16.5.5 1 .5 1 .5 1 .5 1 .3.2.2.3h2l.2-.3.3-.2.5-1 .5-1 .5-1 .5-1 .5-2q.5-2 4-11t10.5-20.5q7-11.5 19.5-24t23.8-19.7q11.2-7.3 26.2-12.3 15-5 29-5.5t24.5 1.5q10.5 2 22.5 7t24.5 13.5q12.5 8.5 23.7 20.8 11.3 12.2 15.3 31.7t4.5 40q.5 20.5-.5 30.5t-5.5 29q-4.5 19-12.5 38t-19 36q-11 17-22 29T588 431.5q-13.5 11.5-30.8 21.7-17.2 10.3-35.2 17.3-18 7-37.5 11T443 486q-22 .5-34.5-1t-33-7q-20.5-5.5-36.5-13t-31.5-17.5q-15.5-10-27.7-21.3-12.3-11.2-24-25.4-11.8-14.3-21-30-9.3-15.8-16.3-33.3-7-17.5-11-36t-5-39.5q-1-21 .5-35t6.5-34q5-20 7.5-22.5t14-13q11.5-10.5 23.8-17.3 12.2-6.7 26.2-10.7 14-4 32-4.5t28 1.5q10 2 19.5 6t21 11.7q11.5 7.8 18.7 16.3 7.3 8.5 14.8 20.5 7.5 12 14.5 28.5zm-117.5 22q9 0 16.5 3.3 7.5 3.2 10.7 6.7 3.3 3.5 7.3 11.5t4 17.5q0 9.5-3 16t-7.5 11q-4.5 4.5-10.8 7.7-6.2 3.3-15.7 3.8t-15-1.5q-5.5-2-11-6.5t-9.7-11.8q-4.3-7.2-4.8-16.7t1.5-15q2-5.5 7.3-11.7 5.2-6.3 13.2-10.3 8-4 17-4zm251 0q10 0 17.5 4t12.7 10.7q5.3 6.8 7.3 14.3 2 7.5.5 16t-6.2 16Q590 300 582 304.2q-8 4.3-18 4.8t-13-.5q-3-1-10-5.5t-11.8-12.2q-4.7-7.8-5.7-15.8t1-15q2-7 7.3-13.8 5.2-6.7 13.2-10.7 8-4 18-4zM435.5 315q15.5-.5 28 2.5t14.3 6.3q1.7 3.2.7 9.2-1 6-6.3 13.8-5.2 7.7-17.7 18.7t-15.5 12q-3 1-7.5-2.5T417 361.5q-10-10-14.2-17.3-4.3-7.2-4.8-12.2-.5-5 1-8t11.2-5.8q9.8-2.7 25.3-3.2zm301 382l2-32 .3.2.2.3.2.3.3.2.3.2.2.3.2.3.3.2.3.2.2.3 1 .5 1 .5.2.3.3.2.3.2.2.3 17.5 12.5q17.5 12.5 35.5 22.5t32 14.5q14 4.5 25 4t16-4q5-3.5 8.2-8.2 3.3-4.8 3.8-5.8l.5-1 .5-2 .5-2 .5-2 .5-2h.5v434H551v-1l1-.2 1-.3.2-.3.3-.2.3-.2.2-.3.2-.3.3-.2.3-.2.2-.3.2-.3.3-.2.3-.2.2-.3.2-.3.3-.2.3-.2q.2-.3 3.4-5 3.3-4.8 6.8-14.3t3.5-24.5v-20l.3.2.2.3.2.3.3.2.5 1 .5 1 .3.2.2.3.2.3.3.2.5 1 .5 1 11.3 14.8q11.2 14.7 18.7 21.2t14.5 9.5q7 3 12 3h5l1-.5 1-.5.2-.3.3-.2v-5q0-5-.5-9.5t-4-19q-3.5-14.5-10-27.5l-6.5-13-.5-1-.5-1-.3-.2-.2-.3-.2-.3-.3-.2-.3-.2-.2-.3-.2-.3-.3-.2-.5-1-.5-1-.3-.2-.2-.3h2l1 .5 1 .5 1 .5 1 .5 1 .5 1 .5 14 5.5q14 5.5 18.5 6.5t12 1h7.5l1.5-.5 1.5-.5 1-.5 1-.5-.2-.3-.3-.2-.5-1-.5-1-.5-1-.5-1-.5-1q-.5-1-3-5.5t-12-18q-9.5-13.5-20.8-23.7Q628 984.5 616 978l-12-6.5-1-.5-1-.5v-.5l.2-.5.3-.5.3-.2.2-.3 1-.5 1-.5.2-.3.3-.2.3-.2.2-.3.2-.3q.3-.2 5-4 4.8-3.7 17.3-16.2t22-23.5q9.5-11 21.7-28.7Q684.5 876 696 853q11.5-23 20-48t13.5-50.5q5-25.5 7-57.5zm-599.3-24.8l.3-.2 3 34q3 34 9 60.5T165 818q9.5 25 21.2 46.2Q198 885.5 210 902q12 16.5 23 29.2 11 12.8 25 24.6 14 11.7 14.2 12l.3.2.3.2.2.3.2.3.3.2.3.2.2.3 1 .5 1 .5.2.3.3.2.3.5.2.5h-.5l-.3.2-.2.3-1 .5-1 .5-11.5 7q-11.5 7-24.3 19.7-12.7 12.8-21.7 27.3T207 1043l-.5 1-.5 1-.5 1-.3 1-.2 1 1 .2 1 .3 1.5.5 1.5.5h7q7 0 10-.5t19-6.5l16-6 1-.5 1-.5 1-.5 1-.5 1-.5 1-.5.2-.3.3-.2v2l-.3.2-.2.3-.2.3-.3.2-.5 1-.5 1-.3.2-.2.3-.2.3-.3.2-6.5 13q-6.5 13-10 26.5t-4 17q-.5 3.5-.8 11.5l-.2 8 1.5.2 1.5.3h5q5 0 11-2.5t15-10.5q9-8 18.8-20.7l9.7-12.8.3-.2.2-.3.2-.3.3-.2.5-1 .5-1 .3-.2.2-.3.2-.3.3-.2.5-1 .5-1 .5-1 .5-1 .3-.2.2-.3.2-.3.3-.2v3l-.5 3-.5 3 .5 15q.5 15 5 25t6.8 12.8q2.2 2.7 2.4 3l.3.2.3.2.2.3.2.3.3.2.3.2.2.3.2.3.3.2.3.2.2.3.2.3.3.2.3.2.2.3.5.3.5.2v1H0V696h.5l.5 2.5.5 2.5.5 1.5.5 1.5.5 1.5q.5 1.5 3.2 5.7 2.8 4.3 8.3 7.8 5.5 3.5 16.5 4t20-2q9-2.5 24.5-10t36.3-21.2l20.7-13.8.3-.2.2-.3.2-.3.3-.2.3-.2.2-.3 1-.5 1-.5.2-.3.3-.2.3-.2.2-.3.2-.3zm377.3 343l1.5-.2 1.8 18q1.7 18 7.7 37.5t14 36q8 16.5 8.5 17.5l.5 1 .5 1 .5 1 .3.2.2.3.2.3.3.2.3.5.2.5v1H331v-1h.5l.5-1 .5-1 .3-.2.2-.3.2-.3.3-.2.5-1q.5-1 9-18.5t14.5-37.5q6-20 7.3-36.5l1.2-16.5h.5l.3.2.2.3 20 4q20 4 51 4t51-4q20-4 22-4.5t3.5-.8z" fill="#fff" fill-rule="evenodd" stroke="#fff" stroke-width=".5"/><path d="M601.8 970h.2v.5l1 .5 1 .5 12 6.5q12 6.5 23.2 16.8 11.3 10.2 20.8 23.7t12 18q2.5 4.5 3 5.5l.5 1 .5 1 .5 1 .5 1 .5 1 .3.2.2.3-1 .5-1 .5-1.5.5-1.5.5h-7.5q-7.5 0-12-1T635 1042l-14-5.5-1-.5-1-.5-1-.5-1-.5-1-.5-1-.5h-2l.2.3.3.2.5 1 .5 1 .3.2.2.3.2.3.3.2.3.2.2.3.2.3.3.2.5 1 .5 1 6.5 13q6.5 13 10 27.5t4 19q.5 4.5.5 9.5v5l-.3.2-.2.3-1 .5-1 .5h-5q-5 0-12-3t-14.5-9.5q-7.5-6.5-18.7-21.2l-11.3-14.8-.5-1-.5-1-.3-.2-.2-.3-.2-.3-.3-.2-.5-1-.5-1-.3-.2-.2-.3-.2-.3-.3-.2v20q0 15-3.5 24.5t-6.8 14.3q-3.2 4.7-3.4 5l-.3.2-.3.2-.2.3-.2.3-.3.2-.3.2-.2.3-.2.3-.3.2-.3.2-.2.3-.2.3-.3.2-.3.2-.2.3-1 .3-1 .2-.2-.5-.3-.5-.3-.2-.2-.3-.2-.3-.3-.2-.5-1-.5-1-.5-1q-.5-1-8.5-17.5t-14-36q-6-19.5-7.7-37.5l-1.8-18 20.2-8.5q20.3-8.5 37.6-18.7 17.2-10.3 22.4-14 5.3-3.8 5.6-3.8zm-325.6 2.2l.3-.2h.5l19 11.8q19 11.7 37 19.7t24.5 10q6.5 2 7.5 2.3l1 .2-1.2 16.5q-1.3 16.5-7.3 36.5t-14.5 37.5q-8.5 17.5-9 18.5l-.5 1-.3.2-.2.3-.2.3-.3.2-.5 1-.5 1h-.5l-.5-.2-.5-.3-.2-.3-.3-.2-.3-.2-.2-.3-.2-.3-.3-.2-.3-.2-.2-.3-.2-.3-.3-.2-.3-.2-.2-.3-.2-.3-.3-.2-.3-.2q-.2-.3-2.4-3-2.3-2.8-6.8-12.8t-5-25l-.5-15 .3-3 .2-3h-2l-.2 1-.3 1-.3.2-.2.3-.2.3-.3.2-.5 1-.5 1-.3.2-.2.3-.2.3-.3.2-9.7 12.8q-9.8 12.7-18.8 20.7t-15 10.5q-6 2.5-11 2.5h-5l-1.5-.3-1.5-.2.2-8q.3-8 .8-11.5t4-17q3.5-13.5 10-26.5l6.5-13 .3-.2.2-.3.2-.3.3-.2.5-1 .5-1 .3-.2.2-.3.2-.3.3-.2v-2l-.3.2-.2.3-1 .5-1 .5-1 .5-1 .5-1 .5-1 .5-16 6q-16 6-19 6.5t-10 .5h-7l-1.5-.5-1.5-.5-1-.3-1-.2.2-1 .3-1 .5-1 .5-1 .5-1q.5-1 9.5-15.5t21.7-27.3q12.8-12.7 24.3-19.7l11.5-7 1-.5 1-.5.2-.3zm36 88l.3-.2.3.2q.2.3-.3.3h-.5l.2-.3z" fill="#fe002c" fill-rule="evenodd" stroke="#fe002c" stroke-width=".5"/><path d="M563 231.5q10 0 17.5 4t12.7 10.7q5.3 6.8 7.3 14.3 2 7.5.5 16t-6.2 16Q590 300 582 304.2q-8 4.3-18 4.8t-13-.5q-3-1-10-5.5t-11.8-12.2q-4.7-7.8-5.7-15.8t1-15q2-7 7.3-13.8 5.2-6.7 13.2-10.7 8-4 18-4zm-251 0q9 0 16.5 3.3 7.5 3.2 10.7 6.7 3.3 3.5 7.3 11.5t4 17.5q0 9.5-3 16t-7.5 11q-4.5 4.5-10.8 7.7-6.2 3.3-15.7 3.8t-15-1.5q-5.5-2-11-6.5t-9.7-11.8q-4.3-7.2-4.8-16.7t1.5-15q2-5.5 7.3-11.7 5.2-6.3 13.2-10.3 8-4 17-4z" fill="#111" fill-rule="evenodd" stroke="#111" stroke-width=".5"/><path d="M435.5 315q15.5-.5 28 2.5t14.3 6.3q1.7 3.2.7 9.2-1 6-6.3 13.8-5.2 7.7-17.7 18.7t-15.5 12q-3 1-7.5-2.5T417 361.5q-10-10-14.2-17.3-4.3-7.2-4.8-12.2-.5-5 1-8t11.2-5.8q9.8-2.7 25.3-3.2z" fill="#fe002d" fill-rule="evenodd" stroke="#fe002d" stroke-width=".5"/></svg>
