<svg height="512" viewBox="0 0 64 64" width="512" xmlns="http://www.w3.org/2000/svg"><path d="M49.24 12.01C46.229 5.51 39.64 1 32 1c-9.81 0-17.89 7.45-18.89 17H12C5.931 18 1 22.93 1 29c0 6.08 4.931 11 11 11h37c7.729 0 14-6.27 14-14 0-7.64-6.14-13.86-13.76-13.99z" fill="#e6e9ed"/><path d="M1 59h24v4H1zM39 59h24v4H39z" fill="#656d78"/><path d="M37 61c0-1.1.899-2 2-2s2 .9 2 2c0 1.11-.899 2-2 2s-2-.89-2-2z" fill="#545c66"/><path d="M32 13c5.521 0 10 4.48 10 10 0 5.53-4.479 10-10 10s-10-4.47-10-10c0-5.52 4.479-10 10-10z" fill="#ed5565"/><path d="M32 55a1.997 1.997 0 01-2-1.99V53c0-1.1.899-2 2-2s2 .9 2 2v.01A1.997 1.997 0 0132 55z" fill="#545c66"/><path d="M34 46.01V53c0-1.1-.899-2-2-2s-2 .9-2 2v-9.99h4z" fill="#656d78"/><path d="M49 40H12C5.931 40 1 35.08 1 29v6.01c0 6.07 4.931 11 11 11h18v-3h4v3h15c7.729 0 14-6.27 14-14V26c0 7.73-6.271 14-14 14z" fill="#ccd1d9"/><path d="M27 61c0 1.11-.899 2-2 2-1.11 0-2-.89-2-2a2 2 0 114 0z" fill="#545c66"/><path d="M25.001 60.003h-24a1 1 0 110-2h24a1 1 0 110 2zM25.001 64.003h-24a1 1 0 110-2h24a1 1 0 110 2zM63.001 60.003h-24a1 1 0 110-2h24a1 1 0 110 2zM63.001 64.003h-24a1 1 0 110-2h24a1 1 0 110 2zM30.001 54.005a1 1 0 01-1-1V43.001a1 1 0 112 0v10.004a1 1 0 01-1 1zM34.001 54.005a1 1 0 01-1-1V43.001a1 1 0 112 0v10.004a1 1 0 01-1 1zM12.001 41.001c-6.617 0-12-5.383-12-12s5.383-12 12-12a1 1 0 110 2c-5.514 0-10 4.486-10 10s4.486 10 10 10a1 1 0 110 2zM49.001 41.001a1 1 0 110-2c7.168 0 13-5.832 13-13 0-7.052-5.739-12.878-12.794-12.988a1 1 0 01-.984-1.016c.009-.552.492-1.007 1.016-.984 8.141.127 14.763 6.851 14.763 14.988-.001 8.271-6.73 15-15.001 15z"/><path d="M51.001 21.001a1 1 0 01-1-1c0-1.285-.136-2.566-.403-3.807-1.77-8.225-9.17-14.193-17.597-14.193-9.925 0-18 8.075-18 18a1 1 0 11-2 0c0-11.028 8.972-20 20-20 9.362 0 17.585 6.633 19.552 15.772.298 1.378.448 2.801.448 4.228a1 1 0 01-1 1z"/><path d="M13.105 19.001h-1.104a1 1 0 110-2h1.104a1 1 0 110 2zM49.001 41.001h-37a1 1 0 110-2h37a1 1 0 110 2zM12.001 47.007c-6.617 0-12-5.384-12-12.002a1 1 0 112 0c0 5.515 4.486 10.002 10 10.002a1 1 0 110 2zM49.001 47.007a1 1 0 110-2c7.168 0 13-5.833 13-13.002a1 1 0 112 0c0 8.272-6.729 15.002-15 15.002z"/><path d="M30.001 47.007h-18a1 1 0 110-2h18a1 1 0 110 2zM63.001 33.005a1 1 0 01-1-1v-6.004a1 1 0 112 0v6.004a1 1 0 01-1 1zM1.001 36.005a1 1 0 01-1-1v-6.004a1 1 0 112 0v6.004a1 1 0 01-1 1zM49.001 47.005h-15a1 1 0 110-2h15a1 1 0 110 2zM36.001 44.005h-8a1 1 0 110-2h8a1 1 0 110 2zM32.001 56.002c-1.654 0-3-1.346-3-3s1.346-3 3-3 3 1.346 3 3-1.346 3-3 3zm0-4a1 1 0 100 2 1 1 0 000-2zM24.999 64.003c-1.654 0-3-1.346-3-3s1.346-3 3-3 3 1.346 3 3-1.346 3-3 3zm0-4a1 1 0 100 2 1 1 0 000-2zM39.001 64.003c-1.654 0-3-1.346-3-3s1.346-3 3-3 3 1.346 3 3-1.346 3-3 3zm0-4a1 1 0 100 2 1 1 0 000-2z"/><path d="M30.001 62.001h-4a1 1 0 110-2h4a1 1 0 110 2zM38.001 62.001h-4a1 1 0 110-2h4a1 1 0 110 2zM32.001 58.899a1 1 0 01-1-1v-3.896a1 1 0 112 0v3.896a1 1 0 01-1 1zM32.001 34.003c-6.065 0-11-4.935-11-11s4.935-11 11-11 11 4.935 11 11-4.935 11-11 11zm0-20c-4.963 0-9 4.037-9 9s4.037 9 9 9 9-4.037 9-9-4.037-9-9-9z"/><path d="M32.001 25.002a1 1 0 01-1-1v-4.999a1 1 0 112 0v4.999a1 1 0 01-1 1zM32.031 28.002c-.553 0-1.005-.447-1.005-1s.442-1 .994-1h.011a1 1 0 110 2z"/></svg>
