<svg xmlns="http://www.w3.org/2000/svg" width="1920" height="1080">
  <path d="M766,1327L402,1339L1279,1340Z" fill="#406c8f" stroke="#406c8f" stroke-width="1.51"/>
  <path d="M923,1312L766,1327L1279,1340Z" fill="#306693" stroke="#306693" stroke-width="1.51"/>
  <path d="M750,-244L1228,-233L1330,-233Z" fill="#a7d0ca" stroke="#a7d0ca" stroke-width="1.51"/>
  <path d="M1658,1300L1429,1325L1735,1300Z" fill="#1b3c86" stroke="#1b3c86" stroke-width="1.51"/>
  <path d="M750,-244L1330,-233L1789,-230Z" fill="#a2c3c8" stroke="#a2c3c8" stroke-width="1.51"/>
  <path d="M2057,80L1988,110L2088,229Z" fill="#758093" stroke="#758093" stroke-width="1.51"/>
  <path d="M2056,412L2073,566L2088,229Z" fill="#487093" stroke="#487093" stroke-width="1.51"/>
  <path d="M2075,738L2083,889L2103,1029Z" fill="#1c478a" stroke="#1c478a" stroke-width="1.51"/>
  <path d="M2073,566L2075,738L2103,1029Z" fill="#1f5491" stroke="#1f5491" stroke-width="1.51"/>
  <path d="M1952,1041L2077,1176L2103,1029Z" fill="#1d3585" stroke="#1d3585" stroke-width="1.51"/>
  <path d="M2088,229L2073,566L2103,1029Z" fill="#2c6394" stroke="#2c6394" stroke-width="1.51"/>
  <path d="M2035,-18L2057,80L2109,-172Z" fill="#858590" stroke="#858590" stroke-width="1.51"/>
  <path d="M2057,80L2088,229L2109,-172Z" fill="#7c818f" stroke="#7c818f" stroke-width="1.51"/>
  <path d="M1735,1300L1429,1325L2127,1294Z" fill="#1b3281" stroke="#1b3281" stroke-width="1.51"/>
  <path d="M1429,1325L1279,1340L2127,1294Z" fill="#1a3c84" stroke="#1a3c84" stroke-width="1.51"/>
  <path d="M1951,1275L1735,1300L2127,1294Z" fill="#192978" stroke="#192978" stroke-width="1.51"/>
  <path d="M2077,1176L1951,1275L2127,1294Z" fill="#162773" stroke="#162773" stroke-width="1.51"/>
  <path d="M2103,1029L2077,1176L2127,1294Z" fill="#192a7a" stroke="#192a7a" stroke-width="1.51"/>
  <path d="M2109,-172L2088,229L2127,1294Z" fill="#3f6c91" stroke="#3f6c91" stroke-width="1.51"/>
  <path d="M2088,229L2103,1029L2127,1294Z" fill="#1c4b8a" stroke="#1c4b8a" stroke-width="1.51"/>
  <path d="M1330,-233L1518,-184L1789,-230Z" fill="#9daabc" stroke="#9daabc" stroke-width="1.51"/>
  <path d="M2056,412L1951,436L2073,566Z" fill="#416f99" stroke="#416f99" stroke-width="1.51"/>
  <path d="M2073,566L1897,735L2075,738Z" fill="#2a619a" stroke="#2a619a" stroke-width="1.51"/>
  <path d="M1952,1041L1927,1104L2077,1176Z" fill="#203489" stroke="#203489" stroke-width="1.51"/>
  <path d="M2075,738L1948,872L2083,889Z" fill="#204f92" stroke="#204f92" stroke-width="1.51"/>
  <path d="M1945,210L2056,412L2088,229Z" fill="#5d7996" stroke="#5d7996" stroke-width="1.51"/>
  <path d="M2083,889L1952,1041L2103,1029Z" fill="#1c3e89" stroke="#1c3e89" stroke-width="1.51"/>
  <path d="M1931,-116L2035,-18L2109,-172Z" fill="#8c8896" stroke="#8c8896" stroke-width="1.51"/>
  <path d="M1915,-213L1931,-116L2109,-172Z" fill="#918ba0" stroke="#918ba0" stroke-width="1.51"/>
  <path d="M1882,584L1897,735L2073,566Z" fill="#3268a1" stroke="#3268a1" stroke-width="1.51"/>
  <path d="M1948,872L1952,1041L2083,889Z" fill="#204591" stroke="#204591" stroke-width="1.51"/>
  <path d="M1945,210L1951,436L2056,412Z" fill="#54779c" stroke="#54779c" stroke-width="1.51"/>
  <path d="M1988,110L1945,210L2088,229Z" fill="#717f98" stroke="#717f98" stroke-width="1.51"/>
  <path d="M1897,735L1948,872L2075,738Z" fill="#25599c" stroke="#25599c" stroke-width="1.51"/>
  <path d="M1951,436L1882,584L2073,566Z" fill="#3b6fa1" stroke="#3b6fa1" stroke-width="1.51"/>
  <path d="M1927,1104L1951,1275L2077,1176Z" fill="#1d2d83" stroke="#1d2d83" stroke-width="1.51"/>
  <path d="M1518,-184L1620,-183L1789,-230Z" fill="#9ca3b8" stroke="#9ca3b8" stroke-width="1.51"/>
  <path d="M2035,-18L1988,110L2057,80Z" fill="#7f8495" stroke="#7f8495" stroke-width="1.51"/>
  <path d="M1837,101L1988,110L2035,-18Z" fill="#83879d" stroke="#83879d" stroke-width="1.51"/>
  <path d="M1931,-116L1837,101L2035,-18Z" fill="#8c8a9e" stroke="#8c8a9e" stroke-width="1.51"/>
  <path d="M1945,210L1799,244L1951,436Z" fill="#627ea4" stroke="#627ea4" stroke-width="1.51"/>
  <path d="M1799,244L1785,411L1951,436Z" fill="#5a7daa" stroke="#5a7daa" stroke-width="1.51"/>
  <path d="M1948,872L1789,994L1952,1041Z" fill="#244699" stroke="#244699" stroke-width="1.51"/>
  <path d="M1837,101L1945,210L1988,110Z" fill="#7d86a0" stroke="#7d86a0" stroke-width="1.51"/>
  <path d="M1741,-78L1837,101L1931,-116Z" fill="#9390a7" stroke="#9390a7" stroke-width="1.51"/>
  <path d="M1897,735L1839,838L1948,872Z" fill="#2958a2" stroke="#2958a2" stroke-width="1.51"/>
  <path d="M1839,838L1789,994L1948,872Z" fill="#284fa1" stroke="#284fa1" stroke-width="1.51"/>
  <path d="M1927,1104L1743,1132L1951,1275Z" fill="#243390" stroke="#243390" stroke-width="1.51"/>
  <path d="M1743,1132L1735,1300L1951,1275Z" fill="#20338a" stroke="#20338a" stroke-width="1.51"/>
  <path d="M1785,411L1882,584L1951,436Z" fill="#4976aa" stroke="#4976aa" stroke-width="1.51"/>
  <path d="M1789,994L1927,1104L1952,1041Z" fill="#253f96" stroke="#253f96" stroke-width="1.51"/>
  <path d="M1837,101L1799,244L1945,210Z" fill="#7986a7" stroke="#7986a7" stroke-width="1.51"/>
  <path d="M1785,411L1744,507L1882,584Z" fill="#4579ae" stroke="#4579ae" stroke-width="1.51"/>
  <path d="M1915,-213L1789,-230L1931,-116Z" fill="#9991ae" stroke="#9991ae" stroke-width="1.51"/>
  <path d="M1789,-230L1741,-78L1931,-116Z" fill="#9994ad" stroke="#9994ad" stroke-width="1.51"/>
  <path d="M1882,584L1787,743L1897,735Z" fill="#3267ab" stroke="#3267ab" stroke-width="1.51"/>
  <path d="M1789,994L1743,1132L1927,1104Z" fill="#26409a" stroke="#26409a" stroke-width="1.51"/>
  <path d="M1787,743L1839,838L1897,735Z" fill="#2b61a9" stroke="#2b61a9" stroke-width="1.51"/>
  <path d="M1744,507L1787,743L1882,584Z" fill="#3872ae" stroke="#3872ae" stroke-width="1.51"/>
  <path d="M410,-247L545,-235L750,-244Z" fill="#caeac5" stroke="#caeac5" stroke-width="1.51"/>
  <path d="M1744,507L1635,665L1787,743Z" fill="#3375b0" stroke="#3375b0" stroke-width="1.51"/>
  <path d="M1647,293L1785,411L1799,244Z" fill="#6187ac" stroke="#6187ac" stroke-width="1.51"/>
  <path d="M1741,-78L1651,-45L1837,101Z" fill="#9197aa" stroke="#9197aa" stroke-width="1.51"/>
  <path d="M1651,-45L1640,144L1837,101Z" fill="#8a96ab" stroke="#8a96ab" stroke-width="1.51"/>
  <path d="M1640,144L1799,244L1837,101Z" fill="#7e8faa" stroke="#7e8faa" stroke-width="1.51"/>
  <path d="M1669,840L1789,994L1839,838Z" fill="#2757a5" stroke="#2757a5" stroke-width="1.51"/>
  <path d="M1787,743L1669,840L1839,838Z" fill="#2962aa" stroke="#2962aa" stroke-width="1.51"/>
  <path d="M579,1319L402,1339L766,1327Z" fill="#59758e" stroke="#59758e" stroke-width="1.51"/>
  <path d="M750,-244L1014,-202L1228,-233Z" fill="#aad7ca" stroke="#aad7ca" stroke-width="1.51"/>
  <path d="M1620,-183L1741,-78L1789,-230Z" fill="#9b9cb2" stroke="#9b9cb2" stroke-width="1.51"/>
  <path d="M1678,1122L1743,1132L1789,994Z" fill="#26449b" stroke="#26449b" stroke-width="1.51"/>
  <path d="M1669,840L1596,958L1789,994Z" fill="#2558a6" stroke="#2558a6" stroke-width="1.51"/>
  <path d="M1640,144L1647,293L1799,244Z" fill="#7290ad" stroke="#7290ad" stroke-width="1.51"/>
  <path d="M1678,1122L1658,1300L1735,1300Z" fill="#203b8d" stroke="#203b8d" stroke-width="1.51"/>
  <path d="M1678,1122L1735,1300L1743,1132Z" fill="#243d94" stroke="#243d94" stroke-width="1.51"/>
  <path d="M1655,488L1744,507L1785,411Z" fill="#4981b0" stroke="#4981b0" stroke-width="1.51"/>
  <path d="M1596,958L1678,1122L1789,994Z" fill="#264ea0" stroke="#264ea0" stroke-width="1.51"/>
  <path d="M1584,410L1655,488L1785,411Z" fill="#4d86b1" stroke="#4d86b1" stroke-width="1.51"/>
  <path d="M1647,293L1584,410L1785,411Z" fill="#5789b0" stroke="#5789b0" stroke-width="1.51"/>
  <path d="M1635,665L1669,840L1787,743Z" fill="#286db0" stroke="#286db0" stroke-width="1.51"/>
  <path d="M1620,-183L1651,-45L1741,-78Z" fill="#999fae" stroke="#999fae" stroke-width="1.51"/>
  <path d="M1655,488L1635,665L1744,507Z" fill="#3980b2" stroke="#3980b2" stroke-width="1.51"/>
  <path d="M1463,647L1431,864L1635,665Z" fill="#267db6" stroke="#267db6" stroke-width="1.51"/>
  <path d="M1640,144L1497,194L1647,293Z" fill="#7599b0" stroke="#7599b0" stroke-width="1.51"/>
  <path d="M1467,145L1640,144L1651,-45Z" fill="#899faf" stroke="#899faf" stroke-width="1.51"/>
  <path d="M1461,516L1635,665L1655,488Z" fill="#3786b5" stroke="#3786b5" stroke-width="1.51"/>
  <path d="M1635,665L1431,864L1669,840Z" fill="#2470b1" stroke="#2470b1" stroke-width="1.51"/>
  <path d="M1515,1144L1658,1300L1678,1122Z" fill="#244497" stroke="#244497" stroke-width="1.51"/>
  <path d="M1596,958L1515,1144L1678,1122Z" fill="#254fa1" stroke="#254fa1" stroke-width="1.51"/>
  <path d="M1461,516L1463,647L1635,665Z" fill="#3186b7" stroke="#3186b7" stroke-width="1.51"/>
  <path d="M1515,-107L1467,145L1651,-45Z" fill="#91a6b0" stroke="#91a6b0" stroke-width="1.51"/>
  <path d="M1620,-183L1515,-107L1651,-45Z" fill="#99a5b1" stroke="#99a5b1" stroke-width="1.51"/>
  <path d="M1431,864L1596,958L1669,840Z" fill="#2365ac" stroke="#2365ac" stroke-width="1.51"/>
  <path d="M1515,1144L1429,1325L1658,1300Z" fill="#1f4590" stroke="#1f4590" stroke-width="1.51"/>
  <path d="M1584,410L1461,516L1655,488Z" fill="#458cb5" stroke="#458cb5" stroke-width="1.51"/>
  <path d="M1452,1036L1515,1144L1596,958Z" fill="#2558a5" stroke="#2558a5" stroke-width="1.51"/>
  <path d="M1497,194L1584,410L1647,293Z" fill="#6395b2" stroke="#6395b2" stroke-width="1.51"/>
  <path d="M1467,145L1497,194L1640,144Z" fill="#7ea0b1" stroke="#7ea0b1" stroke-width="1.51"/>
  <path d="M1497,194L1460,423L1584,410Z" fill="#5a97b4" stroke="#5a97b4" stroke-width="1.51"/>
  <path d="M1518,-184L1515,-107L1620,-183Z" fill="#9ba9b7" stroke="#9ba9b7" stroke-width="1.51"/>
  <path d="M1460,423L1461,516L1584,410Z" fill="#4993b7" stroke="#4993b7" stroke-width="1.51"/>
  <path d="M1431,864L1452,1036L1596,958Z" fill="#2363ab" stroke="#2363ab" stroke-width="1.51"/>
  <path d="M1326,-26L1467,145L1515,-107Z" fill="#92b0b4" stroke="#92b0b4" stroke-width="1.51"/>
  <path d="M-12,-245L336,-237L410,-247Z" fill="#e9f7c2" stroke="#e9f7c2" stroke-width="1.51"/>
  <path d="M1315,688L1344,846L1431,864Z" fill="#2281b9" stroke="#2281b9" stroke-width="1.51"/>
  <path d="M1315,688L1431,864L1463,647Z" fill="#2385bb" stroke="#2385bb" stroke-width="1.51"/>
  <path d="M1326,-26L1336,92L1467,145Z" fill="#8cb3b7" stroke="#8cb3b7" stroke-width="1.51"/>
  <path d="M1291,289L1460,423L1497,194Z" fill="#62a2b8" stroke="#62a2b8" stroke-width="1.51"/>
  <path d="M1305,1120L1429,1325L1515,1144Z" fill="#26539e" stroke="#26539e" stroke-width="1.51"/>
  <path d="M1330,-233L1515,-107L1518,-184Z" fill="#9db2bc" stroke="#9db2bc" stroke-width="1.51"/>
  <path d="M1330,-233L1326,-26L1515,-107Z" fill="#9db7ba" stroke="#9db7ba" stroke-width="1.51"/>
  <path d="M1452,1036L1305,1120L1515,1144Z" fill="#285aa7" stroke="#285aa7" stroke-width="1.51"/>
  <path d="M1461,516L1351,547L1463,647Z" fill="#3393bb" stroke="#3393bb" stroke-width="1.51"/>
  <path d="M1467,145L1291,289L1497,194Z" fill="#76a8b6" stroke="#76a8b6" stroke-width="1.51"/>
  <path d="M1305,1120L1279,1340L1429,1325Z" fill="#235597" stroke="#235597" stroke-width="1.51"/>
  <path d="M1344,846L1295,1014L1431,864Z" fill="#2374b3" stroke="#2374b3" stroke-width="1.51"/>
  <path d="M1431,864L1295,1014L1452,1036Z" fill="#246aae" stroke="#246aae" stroke-width="1.51"/>
  <path d="M1291,289L1285,419L1460,423Z" fill="#54a4bc" stroke="#54a4bc" stroke-width="1.51"/>
  <path d="M1460,423L1351,547L1461,516Z" fill="#4097bb" stroke="#4097bb" stroke-width="1.51"/>
  <path d="M1336,92L1291,289L1467,145Z" fill="#7dafb8" stroke="#7dafb8" stroke-width="1.51"/>
  <path d="M1285,419L1351,547L1460,423Z" fill="#469ebd" stroke="#469ebd" stroke-width="1.51"/>
  <path d="M1351,547L1315,688L1463,647Z" fill="#2d91bd" stroke="#2d91bd" stroke-width="1.51"/>
  <path d="M1295,1014L1305,1120L1452,1036Z" fill="#2865ac" stroke="#2865ac" stroke-width="1.51"/>
  <path d="M37,1311L-156,1338L402,1339Z" fill="#84838b" stroke="#84838b" stroke-width="1.51"/>
  <path d="M1151,1279L923,1312L1279,1340Z" fill="#296094" stroke="#296094" stroke-width="1.51"/>
  <path d="M1220,104L1190,252L1291,289Z" fill="#76b8bc" stroke="#76b8bc" stroke-width="1.51"/>
  <path d="M1151,1279L1279,1340L1305,1120Z" fill="#265d9d" stroke="#265d9d" stroke-width="1.51"/>
  <path d="M1201,674L1150,822L1315,688Z" fill="#2395c1" stroke="#2395c1" stroke-width="1.51"/>
  <path d="M1228,-233L1202,-28L1326,-26Z" fill="#9ec4bc" stroke="#9ec4bc" stroke-width="1.51"/>
  <path d="M1228,-233L1326,-26L1330,-233Z" fill="#9fc1c1" stroke="#9fc1c1" stroke-width="1.51"/>
  <path d="M1326,-26L1220,104L1336,92Z" fill="#8ebbba" stroke="#8ebbba" stroke-width="1.51"/>
  <path d="M1220,104L1291,289L1336,92Z" fill="#80b7bb" stroke="#80b7bb" stroke-width="1.51"/>
  <path d="M1315,688L1150,822L1344,846Z" fill="#1f8bbd" stroke="#1f8bbd" stroke-width="1.51"/>
  <path d="M1237,960L1295,1014L1344,846Z" fill="#2376b3" stroke="#2376b3" stroke-width="1.51"/>
  <path d="M1285,419L1151,545L1351,547Z" fill="#3ca5c1" stroke="#3ca5c1" stroke-width="1.51"/>
  <path d="M1201,674L1315,688L1351,547Z" fill="#2b98c0" stroke="#2b98c0" stroke-width="1.51"/>
  <path d="M1151,545L1201,674L1351,547Z" fill="#30a0c2" stroke="#30a0c2" stroke-width="1.51"/>
  <path d="M1202,-28L1220,104L1326,-26Z" fill="#93c0bb" stroke="#93c0bb" stroke-width="1.51"/>
  <path d="M1150,822L1237,960L1344,846Z" fill="#2382b9" stroke="#2382b9" stroke-width="1.51"/>
  <path d="M1149,1119L1151,1279L1305,1120Z" fill="#2f64a9" stroke="#2f64a9" stroke-width="1.51"/>
  <path d="M1196,397L1285,419L1291,289Z" fill="#55acbf" stroke="#55acbf" stroke-width="1.51"/>
  <path d="M1295,1014L1149,1119L1305,1120Z" fill="#2a6aae" stroke="#2a6aae" stroke-width="1.51"/>
  <path d="M1196,397L1151,545L1285,419Z" fill="#48abc1" stroke="#48abc1" stroke-width="1.51"/>
  <path d="M1190,252L1196,397L1291,289Z" fill="#61b2be" stroke="#61b2be" stroke-width="1.51"/>
  <path d="M1237,960L1149,1119L1295,1014Z" fill="#2a71b0" stroke="#2a71b0" stroke-width="1.51"/>
  <path d="M1053,1262L923,1312L1151,1279Z" fill="#306699" stroke="#306699" stroke-width="1.51"/>
  <path d="M1014,-202L1064,-15L1202,-28Z" fill="#a1cebb" stroke="#a1cebb" stroke-width="1.51"/>
  <path d="M1202,-28L1064,-15L1220,104Z" fill="#95c6bb" stroke="#95c6bb" stroke-width="1.51"/>
  <path d="M1014,-202L1202,-28L1228,-233Z" fill="#a3ccc2" stroke="#a3ccc2" stroke-width="1.51"/>
  <path d="M1046,1042L1149,1119L1237,960Z" fill="#3175b1" stroke="#3175b1" stroke-width="1.51"/>
  <path d="M1150,822L1014,885L1237,960Z" fill="#2c86b9" stroke="#2c86b9" stroke-width="1.51"/>
  <path d="M1014,885L1046,1042L1237,960Z" fill="#3080b5" stroke="#3080b5" stroke-width="1.51"/>
  <path d="M1072,441L1151,545L1196,397Z" fill="#49afc2" stroke="#49afc2" stroke-width="1.51"/>
  <path d="M999,184L1190,252L1220,104Z" fill="#80c0bd" stroke="#80c0bd" stroke-width="1.51"/>
  <path d="M1064,-15L1036,39L1220,104Z" fill="#95c9bc" stroke="#95c9bc" stroke-width="1.51"/>
  <path d="M1072,441L1083,513L1151,545Z" fill="#44afc2" stroke="#44afc2" stroke-width="1.51"/>
  <path d="M1036,39L999,184L1220,104Z" fill="#8ec7bc" stroke="#8ec7bc" stroke-width="1.51"/>
  <path d="M1149,1119L1071,1128L1151,1279Z" fill="#3469a9" stroke="#3469a9" stroke-width="1.51"/>
  <path d="M1190,252L1072,441L1196,397Z" fill="#5ab4bf" stroke="#5ab4bf" stroke-width="1.51"/>
  <path d="M1151,545L1003,691L1201,674Z" fill="#33a3c2" stroke="#33a3c2" stroke-width="1.51"/>
  <path d="M1003,691L1150,822L1201,674Z" fill="#2b9bc1" stroke="#2b9bc1" stroke-width="1.51"/>
  <path d="M1071,1128L1053,1262L1151,1279Z" fill="#3268a1" stroke="#3268a1" stroke-width="1.51"/>
  <path d="M999,184L1072,441L1190,252Z" fill="#6abcbe" stroke="#6abcbe" stroke-width="1.51"/>
  <path d="M999,184L904,282L1072,441Z" fill="#6bc1bf" stroke="#6bc1bf" stroke-width="1.51"/>
  <path d="M1046,1042L1071,1128L1149,1119Z" fill="#3673ae" stroke="#3673ae" stroke-width="1.51"/>
  <path d="M1003,691L1014,885L1150,822Z" fill="#2f97bf" stroke="#2f97bf" stroke-width="1.51"/>
  <path d="M1083,513L1003,691L1151,545Z" fill="#39aac3" stroke="#39aac3" stroke-width="1.51"/>
  <path d="M750,-244L877,-182L1014,-202Z" fill="#b0dcc6" stroke="#b0dcc6" stroke-width="1.51"/>
  <path d="M1003,691L906,728L1014,885Z" fill="#33a0c1" stroke="#33a0c1" stroke-width="1.51"/>
  <path d="M1014,-202L941,-71L1064,-15Z" fill="#a5d4bd" stroke="#a5d4bd" stroke-width="1.51"/>
  <path d="M927,1173L1053,1262L1071,1128Z" fill="#396fa7" stroke="#396fa7" stroke-width="1.51"/>
  <path d="M904,282L849,385L1072,441Z" fill="#61c0c0" stroke="#61c0c0" stroke-width="1.51"/>
  <path d="M1072,441L861,529L1083,513Z" fill="#48b5c3" stroke="#48b5c3" stroke-width="1.51"/>
  <path d="M861,529L1003,691L1083,513Z" fill="#3eb1c4" stroke="#3eb1c4" stroke-width="1.51"/>
  <path d="M922,80L999,184L1036,39Z" fill="#92cfbd" stroke="#92cfbd" stroke-width="1.51"/>
  <path d="M1014,885L898,966L1046,1042Z" fill="#3787b6" stroke="#3787b6" stroke-width="1.51"/>
  <path d="M1046,1042L927,1173L1071,1128Z" fill="#3b75ae" stroke="#3b75ae" stroke-width="1.51"/>
  <path d="M849,385L861,529L1072,441Z" fill="#56bcc2" stroke="#56bcc2" stroke-width="1.51"/>
  <path d="M941,-71L1036,39L1064,-15Z" fill="#9ed0bc" stroke="#9ed0bc" stroke-width="1.51"/>
  <path d="M927,1173L923,1312L1053,1262Z" fill="#366d9e" stroke="#366d9e" stroke-width="1.51"/>
  <path d="M898,966L927,1173L1046,1042Z" fill="#3c7eb1" stroke="#3c7eb1" stroke-width="1.51"/>
  <path d="M906,728L846,797L1014,885Z" fill="#3a9ebe" stroke="#3a9ebe" stroke-width="1.51"/>
  <path d="M941,-71L922,80L1036,39Z" fill="#9cd3bc" stroke="#9cd3bc" stroke-width="1.51"/>
  <path d="M861,529L906,728L1003,691Z" fill="#40adc3" stroke="#40adc3" stroke-width="1.51"/>
  <path d="M846,797L898,966L1014,885Z" fill="#3c93ba" stroke="#3c93ba" stroke-width="1.51"/>
  <path d="M877,-182L941,-71L1014,-202Z" fill="#aad8c2" stroke="#aad8c2" stroke-width="1.51"/>
  <path d="M922,80L904,282L999,184Z" fill="#86ccbd" stroke="#86ccbd" stroke-width="1.51"/>
  <path d="M791,960L785,1189L898,966Z" fill="#4c85b1" stroke="#4c85b1" stroke-width="1.51"/>
  <path d="M861,529L726,685L906,728Z" fill="#4cb1c1" stroke="#4cb1c1" stroke-width="1.51"/>
  <path d="M678,-44L699,76L922,80Z" fill="#a7dab9" stroke="#a7dab9" stroke-width="1.51"/>
  <path d="M712,186L904,282L922,80Z" fill="#8ed0bc" stroke="#8ed0bc" stroke-width="1.51"/>
  <path d="M785,1189L923,1312L927,1173Z" fill="#4371a1" stroke="#4371a1" stroke-width="1.51"/>
  <path d="M898,966L785,1189L927,1173Z" fill="#487cae" stroke="#487cae" stroke-width="1.51"/>
  <path d="M678,-44L922,80L941,-71Z" fill="#a7d9ba" stroke="#a7d9ba" stroke-width="1.51"/>
  <path d="M877,-182L678,-44L941,-71Z" fill="#afdcbb" stroke="#afdcbb" stroke-width="1.51"/>
  <path d="M846,797L791,960L898,966Z" fill="#4793b7" stroke="#4793b7" stroke-width="1.51"/>
  <path d="M699,76L712,186L922,80Z" fill="#9fd7ba" stroke="#9fd7ba" stroke-width="1.51"/>
  <path d="M785,1189L766,1327L923,1312Z" fill="#447099" stroke="#447099" stroke-width="1.51"/>
  <path d="M726,685L846,797L906,728Z" fill="#48a9c0" stroke="#48a9c0" stroke-width="1.51"/>
  <path d="M849,385L765,506L861,529Z" fill="#5dbec1" stroke="#5dbec1" stroke-width="1.51"/>
  <path d="M712,186L849,385L904,282Z" fill="#7ccabd" stroke="#7ccabd" stroke-width="1.51"/>
  <path d="M720,882L791,960L846,797Z" fill="#4e98b9" stroke="#4e98b9" stroke-width="1.51"/>
  <path d="M712,186L685,406L849,385Z" fill="#79cabd" stroke="#79cabd" stroke-width="1.51"/>
  <path d="M765,506L726,685L861,529Z" fill="#56b9c1" stroke="#56b9c1" stroke-width="1.51"/>
  <path d="M750,-244L678,-44L877,-182Z" fill="#b5e0bf" stroke="#b5e0bf" stroke-width="1.51"/>
  <path d="M685,406L765,506L849,385Z" fill="#6ac3bf" stroke="#6ac3bf" stroke-width="1.51"/>
  <path d="M726,685L720,882L846,797Z" fill="#50a5bd" stroke="#50a5bd" stroke-width="1.51"/>
  <path d="M612,267L685,406L712,186Z" fill="#87cfbb" stroke="#87cfbb" stroke-width="1.51"/>
  <path d="M590,796L720,882L726,685Z" fill="#59a9bc" stroke="#59a9bc" stroke-width="1.51"/>
  <path d="M579,1319L766,1327L785,1189Z" fill="#4f7397" stroke="#4f7397" stroke-width="1.51"/>
  <path d="M577,987L538,1099L785,1189Z" fill="#6186ac" stroke="#6186ac" stroke-width="1.51"/>
  <path d="M577,987L785,1189L791,960Z" fill="#5788af" stroke="#5788af" stroke-width="1.51"/>
  <path d="M720,882L577,987L791,960Z" fill="#5793b3" stroke="#5793b3" stroke-width="1.51"/>
  <path d="M550,590L726,685L765,506Z" fill="#60bbc0" stroke="#60bbc0" stroke-width="1.51"/>
  <path d="M538,1099L579,1319L785,1189Z" fill="#5d7ba2" stroke="#5d7ba2" stroke-width="1.51"/>
  <path d="M609,713L590,796L726,685Z" fill="#5eb1be" stroke="#5eb1be" stroke-width="1.51"/>
  <path d="M545,-235L678,-44L750,-244Z" fill="#bee4c0" stroke="#bee4c0" stroke-width="1.51"/>
  <path d="M685,406L550,590L765,506Z" fill="#69c3bf" stroke="#69c3bf" stroke-width="1.51"/>
  <path d="M545,-235L559,-68L678,-44Z" fill="#c3e6b9" stroke="#c3e6b9" stroke-width="1.51"/>
  <path d="M550,590L609,713L726,685Z" fill="#64b8be" stroke="#64b8be" stroke-width="1.51"/>
  <path d="M609,386L550,590L685,406Z" fill="#76c8be" stroke="#76c8be" stroke-width="1.51"/>
  <path d="M612,267L609,386L685,406Z" fill="#80cdbb" stroke="#80cdbb" stroke-width="1.51"/>
  <path d="M699,76L606,112L712,186Z" fill="#a5dab8" stroke="#a5dab8" stroke-width="1.51"/>
  <path d="M590,796L577,987L720,882Z" fill="#609db5" stroke="#609db5" stroke-width="1.51"/>
  <path d="M678,-44L606,112L699,76Z" fill="#addeb7" stroke="#addeb7" stroke-width="1.51"/>
  <path d="M606,112L612,267L712,186Z" fill="#9dd8b9" stroke="#9dd8b9" stroke-width="1.51"/>
  <path d="M559,-68L606,112L678,-44Z" fill="#b7e1b6" stroke="#b7e1b6" stroke-width="1.51"/>
  <path d="M538,1099L463,1183L579,1319Z" fill="#6b80a1" stroke="#6b80a1" stroke-width="1.51"/>
  <path d="M484,875L577,987L590,796Z" fill="#6ba1b6" stroke="#6ba1b6" stroke-width="1.51"/>
  <path d="M559,-68L487,123L606,112Z" fill="#b8e2b6" stroke="#b8e2b6" stroke-width="1.51"/>
  <path d="M415,492L550,590L609,386Z" fill="#80cbbd" stroke="#80cbbd" stroke-width="1.51"/>
  <path d="M438,378L415,492L609,386Z" fill="#8cd0bb" stroke="#8cd0bb" stroke-width="1.51"/>
  <path d="M447,269L438,378L609,386Z" fill="#93d4b9" stroke="#93d4b9" stroke-width="1.51"/>
  <path d="M550,590L412,670L609,713Z" fill="#74bdbe" stroke="#74bdbe" stroke-width="1.51"/>
  <path d="M606,112L487,123L612,267Z" fill="#a9ddb7" stroke="#a9ddb7" stroke-width="1.51"/>
  <path d="M487,123L447,269L612,267Z" fill="#a7dbb8" stroke="#a7dbb8" stroke-width="1.51"/>
  <path d="M447,269L609,386L612,267Z" fill="#92d4ba" stroke="#92d4ba" stroke-width="1.51"/>
  <path d="M412,670L590,796L609,713Z" fill="#6fb6bd" stroke="#6fb6bd" stroke-width="1.51"/>
  <path d="M545,-235L392,-110L559,-68Z" fill="#ceebba" stroke="#ceebba" stroke-width="1.51"/>
  <path d="M412,670L484,875L590,796Z" fill="#74b1ba" stroke="#74b1ba" stroke-width="1.51"/>
  <path d="M392,-110L487,123L559,-68Z" fill="#c8e9b5" stroke="#c8e9b5" stroke-width="1.51"/>
  <path d="M430,939L538,1099L577,987Z" fill="#7094af" stroke="#7094af" stroke-width="1.51"/>
  <path d="M484,875L430,939L577,987Z" fill="#729db2" stroke="#729db2" stroke-width="1.51"/>
  <path d="M463,1183L402,1339L579,1319Z" fill="#6a7c95" stroke="#6a7c95" stroke-width="1.51"/>
  <path d="M300,1290L37,1311L402,1339Z" fill="#7c818f" stroke="#7c818f" stroke-width="1.51"/>
  <path d="M392,-110L314,-32L487,123Z" fill="#d0ecb4" stroke="#d0ecb4" stroke-width="1.51"/>
  <path d="M410,-247L392,-110L545,-235Z" fill="#d6efbf" stroke="#d6efbf" stroke-width="1.51"/>
  <path d="M415,492L412,670L550,590Z" fill="#81c7bd" stroke="#81c7bd" stroke-width="1.51"/>
  <path d="M430,939L463,1183L538,1099Z" fill="#758eab" stroke="#758eab" stroke-width="1.51"/>
  <path d="M430,939L231,1102L463,1183Z" fill="#8292aa" stroke="#8292aa" stroke-width="1.51"/>
  <path d="M412,670L325,682L484,875Z" fill="#81babc" stroke="#81babc" stroke-width="1.51"/>
  <path d="M325,682L252,787L484,875Z" fill="#87b7b9" stroke="#87b7b9" stroke-width="1.51"/>
  <path d="M252,787L430,939L484,875Z" fill="#82aab5" stroke="#82aab5" stroke-width="1.51"/>
  <path d="M332,267L447,269L487,123Z" fill="#b1dfb7" stroke="#b1dfb7" stroke-width="1.51"/>
  <path d="M266,94L332,267L487,123Z" fill="#c2e6b5" stroke="#c2e6b5" stroke-width="1.51"/>
  <path d="M314,-32L266,94L487,123Z" fill="#ceebb4" stroke="#ceebb4" stroke-width="1.51"/>
  <path d="M233,983L231,1102L430,939Z" fill="#889cad" stroke="#889cad" stroke-width="1.51"/>
  <path d="M332,267L438,378L447,269Z" fill="#a5dbb8" stroke="#a5dbb8" stroke-width="1.51"/>
  <path d="M300,1290L402,1339L463,1183Z" fill="#768096" stroke="#768096" stroke-width="1.51"/>
  <path d="M231,1102L300,1290L463,1183Z" fill="#8288a2" stroke="#8288a2" stroke-width="1.51"/>
  <path d="M336,-237L392,-110L410,-247Z" fill="#def2be" stroke="#def2be" stroke-width="1.51"/>
  <path d="M325,682L412,670L415,492Z" fill="#89c7bd" stroke="#89c7bd" stroke-width="1.51"/>
  <path d="M257,440L415,492L438,378Z" fill="#99d4ba" stroke="#99d4ba" stroke-width="1.51"/>
  <path d="M237,486L325,682L415,492Z" fill="#91cfbd" stroke="#91cfbd" stroke-width="1.51"/>
  <path d="M252,787L233,983L430,939Z" fill="#88a8b3" stroke="#88a8b3" stroke-width="1.51"/>
  <path d="M332,267L257,440L438,378Z" fill="#a3dab8" stroke="#a3dab8" stroke-width="1.51"/>
  <path d="M-12,-245L128,-179L336,-237Z" fill="#eef8bf" stroke="#eef8bf" stroke-width="1.51"/>
  <path d="M257,440L237,486L415,492Z" fill="#9bd4bb" stroke="#9bd4bb" stroke-width="1.51"/>
  <path d="M188,868L233,983L252,787Z" fill="#8eadb4" stroke="#8eadb4" stroke-width="1.51"/>
  <path d="M336,-237L314,-32L392,-110Z" fill="#ddf2b7" stroke="#ddf2b7" stroke-width="1.51"/>
  <path d="M175,1251L37,1311L300,1290Z" fill="#848593" stroke="#848593" stroke-width="1.51"/>
  <path d="M231,1102L175,1251L300,1290Z" fill="#86889e" stroke="#86889e" stroke-width="1.51"/>
  <path d="M237,486L161,590L325,682Z" fill="#96cebc" stroke="#96cebc" stroke-width="1.51"/>
  <path d="M122,357L257,440L332,267Z" fill="#acddb8" stroke="#acddb8" stroke-width="1.51"/>
  <path d="M266,94L79,207L332,267Z" fill="#c6e8b5" stroke="#c6e8b5" stroke-width="1.51"/>
  <path d="M128,-179L314,-32L336,-237Z" fill="#e4f4b9" stroke="#e4f4b9" stroke-width="1.51"/>
  <path d="M79,207L122,357L332,267Z" fill="#bbe3b6" stroke="#bbe3b6" stroke-width="1.51"/>
  <path d="M128,-179L102,-41L314,-32Z" fill="#e6f5b2" stroke="#e6f5b2" stroke-width="1.51"/>
  <path d="M137,739L252,787L325,682Z" fill="#91c0bb" stroke="#91c0bb" stroke-width="1.51"/>
  <path d="M161,590L137,739L325,682Z" fill="#96c6bc" stroke="#96c6bc" stroke-width="1.51"/>
  <path d="M119,47L266,94L314,-32Z" fill="#d8efb3" stroke="#d8efb3" stroke-width="1.51"/>
  <path d="M102,-41L119,47L314,-32Z" fill="#dff2b2" stroke="#dff2b2" stroke-width="1.51"/>
  <path d="M113,1142L175,1251L231,1102Z" fill="#8f8da5" stroke="#8f8da5" stroke-width="1.51"/>
  <path d="M119,47L79,207L266,94Z" fill="#d5efb3" stroke="#d5efb3" stroke-width="1.51"/>
  <path d="M92,1043L231,1102L233,983Z" fill="#8f9aab" stroke="#8f9aab" stroke-width="1.51"/>
  <path d="M122,357L237,486L257,440Z" fill="#a7d9ba" stroke="#a7d9ba" stroke-width="1.51"/>
  <path d="M137,739L188,868L252,787Z" fill="#92b8b8" stroke="#92b8b8" stroke-width="1.51"/>
  <path d="M188,868L92,1043L233,983Z" fill="#91a3af" stroke="#91a3af" stroke-width="1.51"/>
  <path d="M122,357L161,590L237,486Z" fill="#a4d7ba" stroke="#a4d7ba" stroke-width="1.51"/>
  <path d="M92,1043L113,1142L231,1102Z" fill="#9295a9" stroke="#9295a9" stroke-width="1.51"/>
  <path d="M122,357L-15,414L161,590Z" fill="#acdbb9" stroke="#acdbb9" stroke-width="1.51"/>
  <path d="M-15,414L-37,549L161,590Z" fill="#a8d8bc" stroke="#a8d8bc" stroke-width="1.51"/>
  <path d="M137,739L26,831L188,868Z" fill="#97b8b7" stroke="#97b8b7" stroke-width="1.51"/>
  <path d="M26,831L92,1043L188,868Z" fill="#96abb1" stroke="#96abb1" stroke-width="1.51"/>
  <path d="M113,1142L37,1311L175,1251Z" fill="#8c899a" stroke="#8c899a" stroke-width="1.51"/>
  <path d="M14,-106L102,-41L128,-179Z" fill="#edf8b4" stroke="#edf8b4" stroke-width="1.51"/>
  <path d="M-37,549L-56,737L137,739Z" fill="#a1cabd" stroke="#a1cabd" stroke-width="1.51"/>
  <path d="M-37,549L137,739L161,590Z" fill="#a0cebb" stroke="#a0cebb" stroke-width="1.51"/>
  <path d="M26,831L-63,949L92,1043Z" fill="#9aa9b3" stroke="#9aa9b3" stroke-width="1.51"/>
  <path d="M-60,98L79,207L119,47Z" fill="#dcf1b4" stroke="#dcf1b4" stroke-width="1.51"/>
  <path d="M79,207L-34,258L122,357Z" fill="#c3e6b6" stroke="#c3e6b6" stroke-width="1.51"/>
  <path d="M-56,737L26,831L137,739Z" fill="#9dc0ba" stroke="#9dc0ba" stroke-width="1.51"/>
  <path d="M-12,-245L14,-106L128,-179Z" fill="#f2fabc" stroke="#f2fabc" stroke-width="1.51"/>
  <path d="M-111,1167L37,1311L113,1142Z" fill="#938da2" stroke="#938da2" stroke-width="1.51"/>
  <path d="M-69,1100L-111,1167L113,1142Z" fill="#9993ac" stroke="#9993ac" stroke-width="1.51"/>
  <path d="M102,-41L-60,98L119,47Z" fill="#e3f4b3" stroke="#e3f4b3" stroke-width="1.51"/>
  <path d="M-34,258L-15,414L122,357Z" fill="#bae2b9" stroke="#bae2b9" stroke-width="1.51"/>
  <path d="M92,1043L-69,1100L113,1142Z" fill="#9897aa" stroke="#9897aa" stroke-width="1.51"/>
  <path d="M14,-106L-60,98L102,-41Z" fill="#e9f6b4" stroke="#e9f6b4" stroke-width="1.51"/>
  <path d="M-63,949L-69,1100L92,1043Z" fill="#9a9fb0" stroke="#9a9fb0" stroke-width="1.51"/>
  <path d="M-128,35L-60,98L14,-106Z" fill="#e9f7b9" stroke="#e9f7b9" stroke-width="1.51"/>
  <path d="M-60,98L-34,258L79,207Z" fill="#d3eeb8" stroke="#d3eeb8" stroke-width="1.51"/>
  <path d="M-121,662L-56,737L-37,549Z" fill="#a4cec4" stroke="#a4cec4" stroke-width="1.51"/>
  <path d="M-111,1167L-156,1338L37,1311Z" fill="#8e899c" stroke="#8e899c" stroke-width="1.51"/>
  <path d="M-12,-245L-181,-192L14,-106Z" fill="#f5fbc3" stroke="#f5fbc3" stroke-width="1.51"/>
  <path d="M-56,737L-175,871L26,831Z" fill="#9ebbbf" stroke="#9ebbbf" stroke-width="1.51"/>
  <path d="M-175,871L-63,949L26,831Z" fill="#9db2bb" stroke="#9db2bb" stroke-width="1.51"/>
  <path d="M-34,258L-155,342L-15,414Z" fill="#bde4bf" stroke="#bde4bf" stroke-width="1.51"/>
  <path d="M-221,-102L-128,35L14,-106Z" fill="#f0f9bc" stroke="#f0f9bc" stroke-width="1.51"/>
  <path d="M-181,-192L-221,-102L14,-106Z" fill="#f6fbc3" stroke="#f6fbc3" stroke-width="1.51"/>
  <path d="M-143,980L-69,1100L-63,949Z" fill="#9ba2b6" stroke="#9ba2b6" stroke-width="1.51"/>
  <path d="M-60,98L-168,293L-34,258Z" fill="#d1ecbe" stroke="#d1ecbe" stroke-width="1.51"/>
  <path d="M-173,559L-37,549L-15,414Z" fill="#acdac4" stroke="#acdac4" stroke-width="1.51"/>
  <path d="M-155,342L-173,559L-15,414Z" fill="#b4dec4" stroke="#b4dec4" stroke-width="1.51"/>
  <path d="M-173,559L-121,662L-37,549Z" fill="#a7d4c6" stroke="#a7d4c6" stroke-width="1.51"/>
  <path d="M-168,293L-155,342L-34,258Z" fill="#c5e7c2" stroke="#c5e7c2" stroke-width="1.51"/>
  <path d="M-175,871L-143,980L-63,949Z" fill="#9dacbc" stroke="#9dacbc" stroke-width="1.51"/>
  <path d="M-128,35L-168,293L-60,98Z" fill="#ddf2bf" stroke="#ddf2bf" stroke-width="1.51"/>
  <path d="M-121,662L-175,871L-56,737Z" fill="#a1c3c5" stroke="#a1c3c5" stroke-width="1.51"/>
  <path d="M-143,980L-111,1167L-69,1100Z" fill="#9b9ab3" stroke="#9b9ab3" stroke-width="1.51"/>
  <path d="M-143,980L-156,1338L-111,1167Z" fill="#9b92b1" stroke="#9b92b1" stroke-width="1.51"/>
  <path d="M-221,-102L-168,293L-128,35Z" fill="#e6f5c1" stroke="#e6f5c1" stroke-width="1.51"/>
  <path d="M-173,559L-175,871L-121,662Z" fill="#a4cac9" stroke="#a4cac9" stroke-width="1.51"/>
  <path d="M-175,871L-156,1338L-143,980Z" fill="#9c9db8" stroke="#9c9db8" stroke-width="1.51"/>
  <path d="M-168,293L-173,559L-155,342Z" fill="#bae1c7" stroke="#bae1c7" stroke-width="1.51"/>
  <path d="M-221,-102L-173,559L-168,293Z" fill="#ceebc5" stroke="#ceebc5" stroke-width="1.51"/>
  <path d="M-221,-102L-175,871L-173,559Z" fill="#b6dfc9" stroke="#b6dfc9" stroke-width="1.51"/>
</svg>
